<mxfile host="app.diagrams.net" modified="2024-02-11T23:04:43.596Z" agent="Mozilla/5.0 (Windows NT 10.0; Win64; x64) AppleWebKit/537.36 (KHTML, like Gecko) Chrome/121.0.0.0 Safari/537.36" etag="qW_XznjPUNtrH53MLPW4" version="23.1.2" type="device">
  <diagram name="Pagina-1" id="bsCfIDEgioWC9dEukl5g">
    <mxGraphModel dx="1877" dy="-544" grid="1" gridSize="10" guides="1" tooltips="1" connect="1" arrows="1" fold="1" page="1" pageScale="1" pageWidth="827" pageHeight="1169" math="0" shadow="0">
      <root>
        <mxCell id="0" />
        <mxCell id="1" parent="0" />
        <mxCell id="nRvZe3EaVZyrfNKoyUzO-48" value="" style="rounded=1;whiteSpace=wrap;html=1;fillColor=#FEFFEB;strokeColor=#82b366;" parent="1" vertex="1">
          <mxGeometry x="-130" y="1520" width="740" height="340" as="geometry" />
        </mxCell>
        <mxCell id="nRvZe3EaVZyrfNKoyUzO-1" value="" style="rounded=1;whiteSpace=wrap;html=1;fillColor=none;" parent="1" vertex="1">
          <mxGeometry x="-110" y="1590" width="240" height="200" as="geometry" />
        </mxCell>
        <mxCell id="nRvZe3EaVZyrfNKoyUzO-2" value="User node" style="text;html=1;strokeColor=none;fillColor=none;align=center;verticalAlign=middle;whiteSpace=wrap;rounded=0;fontSize=22;fontColor=#030003;fontStyle=1" parent="1" vertex="1">
          <mxGeometry x="-48.489999999999995" y="1800" width="110" height="30" as="geometry" />
        </mxCell>
        <mxCell id="nRvZe3EaVZyrfNKoyUzO-4" value="guimain.js" style="rounded=0;whiteSpace=wrap;html=1;fillColor=none;" parent="1" vertex="1">
          <mxGeometry x="-47.28" y="1734" width="110" height="30" as="geometry" />
        </mxCell>
        <mxCell id="nRvZe3EaVZyrfNKoyUzO-10" value="" style="rounded=1;whiteSpace=wrap;html=1;fillColor=none;" parent="1" vertex="1">
          <mxGeometry x="730" y="1614" width="270" height="150" as="geometry" />
        </mxCell>
        <mxCell id="nRvZe3EaVZyrfNKoyUzO-11" value="ServiceStatusGUI" style="text;html=1;strokeColor=none;fillColor=none;align=center;verticalAlign=middle;whiteSpace=wrap;rounded=0;fontSize=22;fontColor=#FF0000;fontStyle=1" parent="1" vertex="1">
          <mxGeometry x="145" y="1869" width="190" height="30" as="geometry" />
        </mxCell>
        <mxCell id="nRvZe3EaVZyrfNKoyUzO-12" value="" style="rounded=1;whiteSpace=wrap;html=1;fillColor=none;" parent="1" vertex="1">
          <mxGeometry x="215" y="1570" width="380" height="240" as="geometry" />
        </mxCell>
        <mxCell id="nRvZe3EaVZyrfNKoyUzO-13" value="ColdStorageService" style="text;html=1;strokeColor=none;fillColor=none;align=center;verticalAlign=middle;whiteSpace=wrap;rounded=0;fontSize=22;fontColor=#FF0000;fontStyle=1" parent="1" vertex="1">
          <mxGeometry x="710" y="1770" width="190" height="30" as="geometry" />
        </mxCell>
        <mxCell id="nRvZe3EaVZyrfNKoyUzO-15" value="" style="shape=image;verticalLabelPosition=bottom;labelBackgroundColor=default;verticalAlign=top;aspect=fixed;imageAspect=0;image=data:image/png,iVBORw0KGgoAAAANSUhEUgAAAJ4AAACNCAYAAABGx8NOAAAAAXNSR0ICQMB9xQAAAAlwSFlzAAAXEgAAFxIBZ5/SUgAAABl0RVh0U29mdHdhcmUATWljcm9zb2Z0IE9mZmljZX/tNXEAABqnSURBVHja7Z13eJRV2sbzgYQOhhZaJCIQjPRQhNCEAAECBEIMIZmUyZT0MqGDCkgLTQFFkC5IR9rSi4soIqigcom6LCCK4mIDXXFll/Od5+U+4WWYSSZkanL+uC8vSSbJzPm9TzvPeY7XlClTvKSknC35IUhJ8ErVB+/l9X8kCZ6UU0AjpWq1jXMNhhSTPnlHrjH55dIIoYTCCaBxlcnVGtrlGo1TTIbksxw2phb/+iP0PaUJPgmJA2HL0RmG5RiMS00Gw2U1aGN1eraqX6gavApc5UoTfBIYO8JmiDTUyNHptNlG40aTMfmWGrbJmji2secz7DP/x9ntsmUZp00NXnWuiqXJ8kl4igdbmUytNpBbNlOO3njS3IXmRY1gezp1Yldr1lJAM5cKvLpc1bjKc5WV4ElZdKGZBkMXky55Qa7B+IU5bMsGDGTHWrZiP1WtahE2K+A15qqlsnoSPAkcd6EhIZVytIaRJr1+DU8QflGDNilRy9aGhLAzTzRhf3iXLxQ2K+AFwupVFrGeBK90Q1fGZDTOMrdq00fGsJ1dgtl5P78igWYNvE4dOsTx3+UHd+tdGtythMw6dLT43jkGwyfmSQJBd6F+/WJBpwYvNmI4M8TEsrT4+CuZSbpjPAvO40lKf0pW1G5eglfCE4bIkJAqyZqEyLTExLmpsYkfZ3B3mqnVMZOZ5SM3S5nqw7hZNXijdZlMz8Gj35OtNzCTwZj/NZNeqfu9TK6+JIEogTOru1EpJMtgvJWt0ysgpMTFM130SDbOmMPmj8ljiyctYHmjprKJaTnMUmJxIjDQpsRCDd7pN06zr//2Nbu85xI7v/0cO7xsH1s2bREbm5rxwO+g3Q4q2VDc6ckQlnrYaEfhbpHXeE1ZWG5tcrjVmWaayDbOXcuOvn6InV1/hr2/6n128NWDbMe8HWzDjA1s1Qur2KKxC9j0rClsfEr2A4DMGx5ZYCnFEng3jt1g/3n/P+x/p/7H2IdM0eW9F9mR5fsVEO8D0Jh8ix4SsoSi9udJAJZq62Zee5s19gW2f+ku9u3+K+zf7/6bXT98nV3adYl9suETdnz5cbZv4T62dfZWtu7FdWz5c8vZ4nGL2cu5L7O52XPZzMwZ7IXUiWxcMlnCFGYeF27t1l0pHhcVPLX+eO8PdmLtMbbwubz7ITQYLlMtUW0FJXhuB5xOq66/Tc4ew3a+soVdPfCNsrh3Tt9htz+4rSzyz0d/Zt/s/YZ9vuVzduqNU+zokqNsz4I9+fCteH4Fe238a2zh6IVsvmk+m5M1h83KmMVmpHEIUyax8cZcNsqYyixtl50KCCgyeGr99PaP7MDru9n0URNVABqvmXS6qZpITU133wEpTRbOJNypUhLhC0bW4/YHf923oATef0/9VwHgt3d+U6weQfHFti/Yx29+zE6sPKEAuHfhXvbWnLcUt7tmyhq2bNIyxQJagnBKygtsYvJoNjr5wZjtYcFT69T6E2zehOmqn5nyKwHIk6TK7gpgiQcuU6vtre4IITf12dazVheRwKOFJ6v354k/Ffh+OvoT+/7A9+zy7svsy7e+ZJ9t+kyB5d0V77Ijrx1RINw+dzvbNHMTe2PqG/mWcNGYRewl00uKK87LzGMz02eyF9OmsslpE9mk1FHK3zM+LYt9uPbDYoEnRImJOhakBy1Hq4sRdUF3ArDEFn4NGk3DHKNxU/6+6djJysLYsoACPmH5yO3efOem4nr/dehf7Oq+qwqEX731FTu3+Rz7aN1HiiV8e+nbbP+i/Wzn/J1s86zNijte+fxKtnTCUvbKmFeUeJCsIcH46thX2dqpa5W4kSzplT1XlN9RHPCEKGxQx4EmnfFYpsYQ5E5JSIkDjp5u7lYn5hqS/1RqbZkmdmzVkSIvHsGntn5/nfxLsYCUdJAV/OXtXxQ3TJaQrNWFHReUWPAMz4BPrj7Jjr1+TMmCd7+0W4kJ109fz1ZPXq0kJeSWKSvekrdFsZiUvHy791vl59LvKS54Qmc2nVZiWAFgjsEw213cb4mzcia9/gPxQW99eT27efxGsRZPDSBZQDWEZAkJll///iv78ciP7NrBa0oy8s+d/2Tnt55XgKKkhDLiw4sPK4kJlWO2zd6muGaydmQpKX6k1/5+/He7gkeiGHbPa9vv1QR5YpWq0bRwtfUrKbFc2cwEXSwF1SJTpfqXvRbPEoQCRAKF3OOtE7cUcChOo5jwh4M/KFaMyjEiLqRYjuqBBCKJLCP9O7lteg39DAKbfoe9//YfDn9/z/1yb5CpM+Qi9nOJ9fN4K6cJ09TK0RveEFZu1cwliiWy98JZg9DcGgoIySWr48Lv9n+X75LJwpFFpBiR/o2+TpZTxHeOAE9t/e7tghgP0OfnCvg83bX6iU18ciUPE8s5EkJLLpksG4FGFpH+S2DS1+j76HWOgs48+xWxHxWf4Xqd2hHjqdCVNURHtxRnGagmJwrArlZBEKqtIbll+i/9P/07fY8jrZ2lXZDFk+fn1/3StdoQZ5ZdPDKeS9Vqu4l4jgqnxU0gnAGiOi4kyITo/8XXnAWd2vWunb38Xtyn1eqcde7D00olj6QmJAwSpRKK58x3HtxZamtoSa76u9RxX7ZON80Z8HkUdMnx8YP5h6NAR/urngKcJ4i2D50Jn2dBB0tHbUISFvuL9nwFfOla3WhHnvX1DPcarenIP4wb9IFQR4aExFnwaQ2Ogs9DoLubSNBOhITDufAZ4uOHOAI+t4ZOExnZKNdgvEIfwMZ5ayQUThR5FpHtGqI1newd87ltnS4kKKh6dpL+OL15qjdJGJwvSuCww/F1WEiYrz3hc0voaJRDVlLSq6I47IwtMCnLEkVmMgIYLlS2RIGncrHeqZqEBLEN5ojNfqmi7XCI9vrMpKT59prv4m7QldMMHdpWlE0oyJWL73rRwz8mNf0OrUmyJmEEph0Uy+W6VTJBQ2uy9cZPZQbrvplujt7wQ0hwSL3iZrpuFdelJmjHiX46T9oKKy0S5zkytbqVxZ1s5TZxXVhISBOTwai42IIO40i5TnSkUnQy62JiBhQn3nM1eMLFVsrS6o+IjX+5yO4r2q6Ey/0qKDCw5sO6XHdwsRV0MZoYkcW6c4uT1N1WKnGGNzUxMe9hXa6rrR1lR1Wy9IZz9EZc1UEsVfQsF+d2/+QhUlO43CJZPVdaOyWL1UXHxMqEwvNEIRGtW0Zi4pKHmWTq0oSCJmBKa+eZoqMGwuqF9uzZrKi7Gq60dpW0UTFxYltMWjvPtXrpidqlFDIVxeq50tpVz4C1k+WTEmH1Aopi9Vxm7TQREeFipolcRM+3esmxcdOLYvVsPdllD5UROxRk7dITtJvpD6axq4UdgimOJByOFXmru+c09Bf4uvrYavUKdImWRu17ijbMXe2SI4OlUeJweOTgwQNttXoFbtp7KnRC4tyqhM+xEscjUzUJ6zg3j9qylWa1PYlqbGIBPe2DEH83ndSnU/oSPseK9nCRZNxoXK8eXRRTqbDdDGvtSfRCH08Hj+aUEHxi9JeEz3ESnSuaiMgk1Q1FVnczLLYn4RrLBp4OHo0JowGKzhyIU1pFGwD0mafExb3J2alRWJJhsdSBmwSbeDp4/9j+D2UiE1k9R82dk7q/psez2285O77YRnvEWpJhvmlfDlkJdZg+5eng0dBDmktn7xGvUgVntz2CgzvDa3rbCh59Y1WuhlxtPB08mkdMo2HtNdRaqmDR2Wf63BOiop4rzN1aAq8arrAM8nTwaPQrTVMv7hh/KdskzmWkJWgPm7lbm8F7jKu9p4NX3ItLpIommrOMOO86Jafq7FaCJwFxqMSZjGaNm7XCFprFJlEJnpRdJdriQ3v0HIzqSEVLcZ4ET8quEqNto8MGjyoozpPgSdlV4hRaUnT0CsR5VS01DUjwpOwq0SaVokl4GxxZrOdJ8KQcktmmxid+xBlqrEow7ovzJHhSdpXoVMlM0l3mDNHRx5qWCskSPCmHgJeVpPueM9Scq7alNikJnpRdRacFFfB0+p84Q4HWMlsJnpTDPn/OUEs0nFSR4EkwnAlea676qnMYEjwpp4DXxlotT4In5Ujw2qHFToInwXCsaFi30qGiN/xOrXVosXugS0WCJ+WYcopWd02CJ8GT4EnwSrYu7P7y7iwVjeZTCZ4Ez2kSTQJGjeZDJBd+SC4keFKOkzhfGx8ZuZ0z1FZmtRI8p4guxqHPflj//otkHU+C5zQtfC5P+ew7d+iQxRlqJXcuJHhOkTjU7VvTly5YbsFVVzYJSPAcqvzisU7/b87PM1xPojtFtkVJQJyQ0cZoznF+unEFoB+vomwElYA4TOJG7xGDBm3k/HTheqJYHcieKgmecyXO1Aa1aEWJRUcuf9WE0DK2gheUGpdw3lOhm5RuUmanSPCcI7FVhviuv6p4XM3WU2ZV8YJ2+AFxXJlco7nGc020UZO4aGoQ/fCZXAu4VjTx9z/XtUNHlhCuYdNSp9lNM9JmsNmZs9mCUQvYmilr2N6Fe9lH6z5ShvbIaVGOlxjYox0xknYs+ph1H5cr7EC3mI/XADWYEC66CtwI+Exco2wUgToGsD7PNYvrlRo1auzp8XRnNqh3KJuTNcdumpczT4FuyYQlbMOMDezQ4kPs7PqzylRQAk/Ox3OsxASB8ND+q/k698BBnzrW5iGbTwQth5qLL14YzDWIayRXIpeOy1AEEbCpXNkAcAbB17Nzlz/6dO/O8rJmsaUTltpFyyYtYyufX8nenPYm2zV/Fzu+/Dj7fMvn7NrBa+z3479L8BxcRhHDehr7+xuRWDSxllhYG0VbAUP1/NEzT2lxKAAM5xpWBEVwPcsVA2jJYk5t36rV6cF9+7FxulFs2+xtdtH2udsV4PYt3MeOvX5MGcp4adcl9uORH5UPRo6idZxOrD1299bu6BjqSKG7LtpzNVInFrZMfRdxHpnJx2kkLdpbOnF1Bs22Khjg9uIKg+VMq1e79oLo8HCWEDmCvbPsGHtv5XvF1omVJ9jJ1SeVhOLc5nPs4q6LirVTx3cSPMdo8eT5Cni9u3Z/BfGd2Cqrau2yFWu3ZpfHi2rhBzQChE8UUWRum6ngpWr2cK7kZwcNvpIUPZLtXridXdhxwS4i2C7vvsyu7rvKrh++rmSzt07cktbOCdlslk7/R6UKFciwdC8svivogpVHAF8lAPgoZmDUeAjVQnbjjyehJ7nfXl26bEhLSGRzxk5T7qOwh34++rNyvQABR5Pe6ZoBgk5aO8fpwOu7744lCw8/yNd1MDxjY5tnIFuArywA9AaE5fGDiqpKKuvZCGWafj7VfIyZiUl/8SeFXdx9QbFMxRWBRiLXKq6TktA5TjQ14IXs0XcIvFbNAyfwde2LvKBhQWNoC7tET33rogDxYSSsZxWY3wDEfkOjwsIOmQxGtmL6YgUSe4hAE5I3ODpniywxKuoMQqhutrhZm+6rtfN1oY9iV4Q6U0Mb1KuXzi3ebeUWnv1X5HWhHqSbx2/kl1BaNGv+HLLZDsgFCr0+1FkXJJexUCOkIHT4iCHhh+mPpwt35YJ6nrVLiBpxFpsMvdB/V2A262zwRLZcAU+DP2o9A3kmlJSRpLtJb+Ly3otyUT3P2k3m6zgEpbYmqoHbtt3e6ATwHriySmS4A0P6KLd1U3cDBaxycd1b4jr4hMioT1Cb7aNKKqoXdnOj08CzYPVqIOXuCKunS41PuEZvhoY3y8V1X+VfBa833G7k5zcWu1nBqNcWmlS4Cjz1zkh9xARUVH62fevW8+gNkQmnoqRcZPcsn4gzFWF9+u2EteuL02SP2Xo7t1PBM7N6FbGBnG/1uOJjhg07SW+KLt2VC+2+CUWyJp6uBk1SWbsAWLvKtlg7V4FnbvVErDfcp5pPdiYSjTObTsvFdiNR4ieabAObNJvO1ysasV0b9G/abO2cDp6VWO9xZLjUdBr7zNNdVtKbm5iRc4dG18tFd72ou2f6qIkKdBEDBhzi65SAbqXOmOxeu7CLkV0OnoWm07qo63Wl3Qwy4SMGh79HbzJv7GSZ5bpRFmuIib1cyds7ja9RJGLzlmgarl4Ua+dK8NRWT+xmtBEdzxW8vTPoTdKbpc5Wufiuk2gCyEhMuulbu/Y49FaGwks9jli9oq2xnUvBs7CbURvFx05INOL8GjR4XsR7NAhGQuB8iZFjysmxli0Xogt9CBKK5vBWVWyp27kTeMLqiZNt9XEvQne4XG27li0X0Zsek5p+5/z2cxIGJ+rqgW+UOJs+/369etPkJz1cbC+0t4mEokJRXKzLwTNrt6+IrTThcnujZd4wqHefv0n4nCuqo4p2p5Hhw05R4y6y2H5wsY3hYkWxuIwngmfucp9Al0MoCpTJQ0JDD4jiMpl/CYdjoRMZbHxkJI2ioGRCgxDoaexQ+D6si3UL8Cy43KqIGwKQqofhTaeNDA8/Lcos5AYkJI4pm1Al4W6PXfQXPMkzoXQyBFWHQIRERc5i3Q48C2c9qiNFD0RjIb3peK6M2IiIM8qUgEyTtHwOsHRiBIV+ZMzXHLpcirNxWrCnKq7zUWexJQG8Mmbxnh/qRD2QbCTSh0FPooj55O6G/RIJEdMZ4uKuVqtSbRyOow5HvN0WrWwiriv3sC7WrcCzEO9Vwpv0R7LRC2d0aX8wU7hd2c1SfFG3CT3EyviJZ0d8yR/uUchgn8WWWBCSCbE74V1c6NwKPCvJRi0UKdviyRsO+LLCevfZK+DbOG+NhOghJAZl381eh36IiQ8EXRS6TtqjvlpHlUyULS50bgeehUaCKqpMNwg7G5HC8j0THLw5R29UzmzQ7F3ZTmV7EiFmnZCG9O17yAy6fugaaooMtmpxkwm3B89CpitOp6nhG47AN6NtixZLaDtHZLwy7it8N0L01FEzJz285EEQ06mha4YKQzV7Q+e24FmZauALsx8EtxuBLZz0OrVqTaH4RO16ZXPB/aLPY89r2/OtnFET993jfn5zMAUsCZ6kL2qo5tDZ3HXi8eBZga8OAt226I4YilILTaQy9ezSZQs9xaKzRe503LNyoj5HGtq//995EkGZazoe3uHwJO3hXgV0FR52Z8KjwbMCX20kHK2xr0tjE2IxEi2bP8VzDSNjrogPmbqZS2tfH50GU8dyGYna39q1br0CU7tSMHRzKKoG7RDO+JpbOntD5xHgWYn5xDiMFuiUGICznRSnZNBgyJDg4B1ZOv0t8aFT2zYF1aXFrVKZSRxBJC9AVq5alWrPI54zoL1pEB7e1niY65glEg6BzmPAswBfZXQvN8RdCp0Qn0Rgi0dxvfyDnjx8YNh7Aj4Kqqm/jCxBSQWOZtWJvVZSXETk5/Xr1s3jn0cu9l21qNGFYpRcCzzEtfBQ5ycSjoLOo8Azg08UmR/F3mFTuIqecL0xKA1Q4DzK389vfmJU1FdiMcgS0J1bJaX8QpacLJzIVkXy0Oapp5ZhJHAWQhENXGtvJBHN8fDWUBWHyzoSOI8Ez8L2WgXEI2KIZEs8xaHI0hIQy1CNagwtBFkA9XR4ioE8dd+XYlcKIUTf3N3h1yMudmwXtA7zp3Ng/RNRKhmA/e/WiOfq4uGtiIfZKdB5JHgW4BOTqGri6Q1AdvYMYpholAvSEFSPadboiUXRQ8I/VgNI1oIW0d0TEbLStOMgNvTVLhUWbizeZzpi3pFotOiN+tyT6HushXiugiOTiBIFngo+ddxXCZ0tvirr1xn7jeGqOczpAkAe+8yJHDT4FGV76kWk0gO5LneZ5UKb+ASbGPkqRMkT/f30IKmAy0DyoEFnST8kYK1g5eqhCaOSyrU6FTqPBs8G69cAsV8b9JL1w0LEqgDMQQw0vnVg4HJaRHUmLOJBKsk4E0QBGp3uohYw88tjYiIiPu0a1HETJumPUVk4PYAbjuOi3RD7BsAbqK1cOWckESUWPDP4hPWriNivNtxKABZATLBXAyiuQxgFqzGeYiSCMCUu/rqlW4PIzZH1oZ0AypIpRiQVJVmhhIBeQxeT0M8guMVdr+Yii0yuNKRbt508U5/K/8Zx+HuzEULo8H4iAFx3hBtPImOtA2/gUitX4sAzc71q61cZwbMvFqA5ABQWMBwxYCKyvgxYwXwI+UK/+HTbtm8O6z/whCFW870zrsNKS0j8hWLQHp07b/Nv2PBl/ndMAGyjVe40GaWRkchUQwFcEIDzR/Lgg8/hvoKwK6ErUeBZif3KqQD0UQEYgG23LtgqCoN7isViGuG6slH/Gi1AJAgIBu6aVwzo2ftgeGjoO9oR0ZdIBIwtYJE7F68hyxoWEnI0qEWLNc0DApZ43b2OazxAG4OHIAewpSBR0qAWNxgxbDAeqOZmwFVxB7daKsCz4n7LYQGqwALWgQtuiiSkI6xFXyxmJJKRBMRNKVj4bK9712oJGMcJICFb7nkT3ysAG6uCzITfk4kwwIiHQcAWDuvWE4Xz1tjUfwwPliXgyrgLcCUevAIAFBawOmLA+siCmyMR6QQI++Bk1VDUwGIBorhWKwXxVQYKtAJKE6xkrtf9d7uJfxPfk4PXZcK6Csh0cP0abANGoCzUD7B1hrUORMNEA7yPR/G+HgDO3aArFeBZAdD8Hg8fWMGGKghbIUDvggXvgwLsEK97V2VFA8g4wKKFK9TBUqrvddNDOnxPIjprNIjTovBzwwF8P9Qiu8Iit0Hs9gTOo/hix6Ea3kd5TwCu1IFnAUCRhAg3XBmLWAMQihuNmmDBW3ndu1orGIeQesE9hwKWQXDV4bCU5goHuIPw/f3x+t6AuyvOrraHCw1EOPA4HgpflIqqq6ybN96HW7pUCV7BWbD6Mhn1pTCPYqEFiI8Bgqawik8ByDYI7tvDOol738z1NL7eARC3xetbAO6mcJ+N4EJ9UXvzwUNhFTZPAa7Ug2cDhCIeFCBWgaXxAYy1AUZ9QOIHYPwBZ2Ov++91a4x/98f3PQYrVh9ZaB0VZNUBfmXUJMtbg83TgJPgFQyg+Y1GAkRvMxgrA8iqsEjVve7d+2bp7jcffL06vr8qXl8ZP08NWTkVaCUCNgle8UEUMAogBZTqe9/M735T/7u3Cq5yqp+lhqxEgSbBsx+IlqAs41Xw3W+Wvs/izyzxn6UEymlwlhqoJHhSbqv/BweZwbmF4PgUAAAAAElFTkSuQmCC;" parent="1" vertex="1">
          <mxGeometry x="765.78" y="1640.1999999999998" width="78.44" height="70" as="geometry" />
        </mxCell>
        <mxCell id="nRvZe3EaVZyrfNKoyUzO-16" value="fridgeservice" style="text;html=1;strokeColor=none;fillColor=none;align=center;verticalAlign=middle;whiteSpace=wrap;rounded=0;" parent="1" vertex="1">
          <mxGeometry x="775" y="1710.1999999999998" width="60" height="30" as="geometry" />
        </mxCell>
        <mxCell id="nRvZe3EaVZyrfNKoyUzO-17" value="" style="endArrow=classic;html=1;rounded=0;" parent="1" edge="1">
          <mxGeometry width="50" height="50" relative="1" as="geometry">
            <mxPoint x="250" y="1743" as="sourcePoint" />
            <mxPoint x="80" y="1743" as="targetPoint" />
          </mxGeometry>
        </mxCell>
        <mxCell id="nRvZe3EaVZyrfNKoyUzO-22" value="" style="endArrow=classic;html=1;rounded=0;entryX=0.092;entryY=0.792;entryDx=0;entryDy=0;entryPerimeter=0;exitX=0.792;exitY=0.815;exitDx=0;exitDy=0;exitPerimeter=0;" parent="1" source="nRvZe3EaVZyrfNKoyUzO-1" edge="1">
          <mxGeometry width="50" height="50" relative="1" as="geometry">
            <mxPoint x="90" y="1753" as="sourcePoint" />
            <mxPoint x="249.96000000000004" y="1753.08" as="targetPoint" />
          </mxGeometry>
        </mxCell>
        <mxCell id="nRvZe3EaVZyrfNKoyUzO-23" value="WebSocket" style="text;html=1;strokeColor=none;fillColor=none;align=center;verticalAlign=middle;whiteSpace=wrap;rounded=0;fontStyle=3" parent="1" vertex="1">
          <mxGeometry x="141" y="1713" width="60" height="30" as="geometry" />
        </mxCell>
        <mxCell id="nRvZe3EaVZyrfNKoyUzO-25" value="WSHandler" style="text;html=1;strokeColor=none;fillColor=none;align=center;verticalAlign=middle;whiteSpace=wrap;rounded=0;" parent="1" vertex="1">
          <mxGeometry x="261" y="1770" width="60" height="30" as="geometry" />
        </mxCell>
        <mxCell id="nRvZe3EaVZyrfNKoyUzO-26" value="" style="ellipse;whiteSpace=wrap;html=1;aspect=fixed;fillColor=none;" parent="1" vertex="1">
          <mxGeometry x="495" y="1724" width="50" height="50" as="geometry" />
        </mxCell>
        <mxCell id="nRvZe3EaVZyrfNKoyUzO-27" value="CoaPObserver" style="text;html=1;strokeColor=none;fillColor=none;align=center;verticalAlign=middle;whiteSpace=wrap;rounded=0;" parent="1" vertex="1">
          <mxGeometry x="490" y="1770" width="60" height="30" as="geometry" />
        </mxCell>
        <mxCell id="nRvZe3EaVZyrfNKoyUzO-28" value="" style="endArrow=classic;html=1;rounded=0;" parent="1" edge="1">
          <mxGeometry width="50" height="50" relative="1" as="geometry">
            <mxPoint x="720" y="1730" as="sourcePoint" />
            <mxPoint x="560" y="1730" as="targetPoint" />
          </mxGeometry>
        </mxCell>
        <mxCell id="nRvZe3EaVZyrfNKoyUzO-29" value="CoaP" style="text;html=1;strokeColor=none;fillColor=none;align=center;verticalAlign=middle;whiteSpace=wrap;rounded=0;fontStyle=3" parent="1" vertex="1">
          <mxGeometry x="634.9200000000001" y="1703.31" width="60" height="30" as="geometry" />
        </mxCell>
        <mxCell id="nRvZe3EaVZyrfNKoyUzO-33" value="" style="ellipse;whiteSpace=wrap;html=1;aspect=fixed;fillColor=none;" parent="1" vertex="1">
          <mxGeometry x="495" y="1614" width="50" height="50" as="geometry" />
        </mxCell>
        <mxCell id="nRvZe3EaVZyrfNKoyUzO-34" value="ActorOutIn" style="text;html=1;strokeColor=none;fillColor=none;align=center;verticalAlign=middle;whiteSpace=wrap;rounded=0;" parent="1" vertex="1">
          <mxGeometry x="490" y="1660" width="60" height="30" as="geometry" />
        </mxCell>
        <mxCell id="nRvZe3EaVZyrfNKoyUzO-41" value="" style="endArrow=classic;html=1;rounded=0;entryX=0.792;entryY=0.8;entryDx=0;entryDy=0;entryPerimeter=0;dashed=1;" parent="1" edge="1">
          <mxGeometry width="50" height="50" relative="1" as="geometry">
            <mxPoint x="720" y="1630" as="sourcePoint" />
            <mxPoint x="559.9999999999999" y="1630" as="targetPoint" />
          </mxGeometry>
        </mxCell>
        <mxCell id="nRvZe3EaVZyrfNKoyUzO-42" value="" style="endArrow=classic;html=1;rounded=0;exitX=0.792;exitY=0.85;exitDx=0;exitDy=0;exitPerimeter=0;" parent="1" edge="1">
          <mxGeometry width="50" height="50" relative="1" as="geometry">
            <mxPoint x="559.9999999999999" y="1640" as="sourcePoint" />
            <mxPoint x="720" y="1640" as="targetPoint" />
          </mxGeometry>
        </mxCell>
        <mxCell id="nRvZe3EaVZyrfNKoyUzO-43" value="Tcp" style="text;html=1;strokeColor=none;fillColor=none;align=center;verticalAlign=middle;whiteSpace=wrap;rounded=0;fontStyle=3" parent="1" vertex="1">
          <mxGeometry x="634.92" y="1600" width="60" height="30" as="geometry" />
        </mxCell>
        <mxCell id="nRvZe3EaVZyrfNKoyUzO-44" value="" style="ellipse;whiteSpace=wrap;html=1;aspect=fixed;fillColor=none;" parent="1" vertex="1">
          <mxGeometry x="266" y="1724" width="50" height="50" as="geometry" />
        </mxCell>
        <mxCell id="nRvZe3EaVZyrfNKoyUzO-45" value="ApplGuiCore" style="text;html=1;strokeColor=none;fillColor=none;align=center;verticalAlign=middle;whiteSpace=wrap;rounded=0;" parent="1" vertex="1">
          <mxGeometry x="347.86" y="1700.52" width="60" height="30" as="geometry" />
        </mxCell>
        <mxCell id="nRvZe3EaVZyrfNKoyUzO-47" value="" style="ellipse;whiteSpace=wrap;html=1;fillColor=#97D077;" parent="1" vertex="1">
          <mxGeometry x="324.71999999999997" y="1629.6699999999998" width="106.28" height="70.85" as="geometry" />
        </mxCell>
        <mxCell id="nRvZe3EaVZyrfNKoyUzO-49" value="Application node" style="text;html=1;strokeColor=none;fillColor=none;align=center;verticalAlign=middle;whiteSpace=wrap;rounded=0;fontSize=22;fontColor=#030003;fontStyle=1" parent="1" vertex="1">
          <mxGeometry x="314" y="1820" width="200" height="30" as="geometry" />
        </mxCell>
        <mxCell id="J2QTDikrqXuwtbenAhjh-1" value="" style="shape=image;verticalLabelPosition=bottom;labelBackgroundColor=default;verticalAlign=top;aspect=fixed;imageAspect=0;image=data:image/jpeg,/9j/4AAQSkZJRgABAQEAeAB4AAD/4QLuRXhpZgAATU0AKgAAAAgABAE7AAIAAAAMAAABSodpAAQAAAABAAABVpydAAEAAAAYAAACzuocAAcAAAEMAAAAPgAAAAAc6gAAAAEAAAAAAAAAAAAAAAAAAAAAAAAAAAAAAAAAAAAAAAAAAAAAAAAAAAAAAAAAAAAAAAAAAAAAAAAAAAAAAAAAAAAAAAAAAAAAAAAAAAAAAAAAAAAAAAAAAAAAAAAAAAAAAAAAAAAAAAAAAAAAAAAAAAAAAAAAAAAAAAAAAAAAAAAAAAAAAAAAAAAAAAAAAAAAAAAAAAAAAAAAAAAAAAAAAAAAAAAAAAAAAAAAAAAAAAAAAAAAAAAAAAAAAAAAAAAAAAAAAAAAAAAAAAAAAAAAAAAAAAAAAAAAAAAAAAAAAAAAAAAAAAAAAAAAAAAAAAAAAAAAAAAAAAAAAAAAAAAAAAAAAAAAAAAATWF0dGVvIEdpcmkAAAWQAwACAAAAFAAAAqSQBAACAAAAFAAAAriSkQACAAAAAzMwAACSkgACAAAAAzMwAADqHAAHAAABDAAAAZgAAAAAHOoAAAABAAAAAAAAAAAAAAAAAAAAAAAAAAAAAAAAAAAAAAAAAAAAAAAAAAAAAAAAAAAAAAAAAAAAAAAAAAAAAAAAAAAAAAAAAAAAAAAAAAAAAAAAAAAAAAAAAAAAAAAAAAAAAAAAAAAAAAAAAAAAAAAAAAAAAAAAAAAAAAAAAAAAAAAAAAAAAAAAAAAAAAAAAAAAAAAAAAAAAAAAAAAAAAAAAAAAAAAAAAAAAAAAAAAAAAAAAAAAAAAAAAAAAAAAAAAAAAAAAAAAAAAAAAAAAAAAAAAAAAAAAAAAAAAAAAAAAAAAAAAAAAAAAAAAAAAAAAAAAAAAAAAAAAAAAAAAAAAAAAAAAAAAAAAAADIwMjQ6MDI6MDYgMDY6MTA6MzUAMjAyNDowMjowNiAwNjoxMDozNQAAAE0AYQB0AHQAZQBvACAARwBpAHIAaQAAAP/hBB5odHRwOi8vbnMuYWRvYmUuY29tL3hhcC8xLjAvADw/eHBhY2tldCBiZWdpbj0n77u/JyBpZD0nVzVNME1wQ2VoaUh6cmVTek5UY3prYzlkJz8+DQo8eDp4bXBtZXRhIHhtbG5zOng9ImFkb2JlOm5zOm1ldGEvIj48cmRmOlJERiB4bWxuczpyZGY9Imh0dHA6Ly93d3cudzMub3JnLzE5OTkvMDIvMjItcmRmLXN5bnRheC1ucyMiPjxyZGY6RGVzY3JpcHRpb24gcmRmOmFib3V0PSJ1dWlkOmZhZjViZGQ1LWJhM2QtMTFkYS1hZDMxLWQzM2Q3NTE4MmYxYiIgeG1sbnM6ZGM9Imh0dHA6Ly9wdXJsLm9yZy9kYy9lbGVtZW50cy8xLjEvIi8+PHJkZjpEZXNjcmlwdGlvbiByZGY6YWJvdXQ9InV1aWQ6ZmFmNWJkZDUtYmEzZC0xMWRhLWFkMzEtZDMzZDc1MTgyZjFiIiB4bWxuczp4bXA9Imh0dHA6Ly9ucy5hZG9iZS5jb20veGFwLzEuMC8iPjx4bXA6Q3JlYXRlRGF0ZT4yMDI0LTAyLTA2VDA2OjEwOjM1LjI5NTwveG1wOkNyZWF0ZURhdGU+PC9yZGY6RGVzY3JpcHRpb24+PHJkZjpEZXNjcmlwdGlvbiByZGY6YWJvdXQ9InV1aWQ6ZmFmNWJkZDUtYmEzZC0xMWRhLWFkMzEtZDMzZDc1MTgyZjFiIiB4bWxuczpkYz0iaHR0cDovL3B1cmwub3JnL2RjL2VsZW1lbnRzLzEuMS8iPjxkYzpjcmVhdG9yPjxyZGY6U2VxIHhtbG5zOnJkZj0iaHR0cDovL3d3dy53My5vcmcvMTk5OS8wMi8yMi1yZGYtc3ludGF4LW5zIyI+PHJkZjpsaT5NYXR0ZW8gR2lyaTwvcmRmOmxpPjwvcmRmOlNlcT4NCgkJCTwvZGM6Y3JlYXRvcj48L3JkZjpEZXNjcmlwdGlvbj48L3JkZjpSREY+PC94OnhtcG1ldGE+DQogICAgICAgICAgICAgICAgICAgICAgICAgICAgICAgICAgICAgICAgICAgICAgICAgICAgICAgICAgICAgICAgICAgICAgICAgICAgICAgICAgICAgICAgICAgICAgICAgICAgCiAgICAgICAgICAgICAgICAgICAgICAgICAgICAgICAgICAgICAgICAgICAgICAgICAgICAgICAgICAgICAgICAgICAgICAgICAgICAgICAgICAgICAgICAgICAgICAgICAgICAKICAgICAgICAgICAgICAgICAgICAgICAgICAgICAgICAgICAgICAgICAgICAgICAgICAgICAgPD94cGFja2V0IGVuZD0ndyc/Pv/bAEMABwUFBgUEBwYFBggHBwgKEQsKCQkKFQ8QDBEYFRoZGBUYFxseJyEbHSUdFxgiLiIlKCkrLCsaIC8zLyoyJyorKv/bAEMBBwgICgkKFAsLFCocGBwqKioqKioqKioqKioqKioqKioqKioqKioqKioqKioqKioqKioqKioqKioqKioqKioqKv/AABEIAY4FKgMBIgACEQEDEQH/xAAfAAABBQEBAQEBAQAAAAAAAAAAAQIDBAUGBwgJCgv/xAC1EAACAQMDAgQDBQUEBAAAAX0BAgMABBEFEiExQQYTUWEHInEUMoGRoQgjQrHBFVLR8CQzYnKCCQoWFxgZGiUmJygpKjQ1Njc4OTpDREVGR0hJSlNUVVZXWFlaY2RlZmdoaWpzdHV2d3h5eoOEhYaHiImKkpOUlZaXmJmaoqOkpaanqKmqsrO0tba3uLm6wsPExcbHyMnK0tPU1dbX2Nna4eLj5OXm5+jp6vHy8/T19vf4+fr/xAAfAQADAQEBAQEBAQEBAAAAAAAAAQIDBAUGBwgJCgv/xAC1EQACAQIEBAMEBwUEBAABAncAAQIDEQQFITEGEkFRB2FxEyIygQgUQpGhscEJIzNS8BVictEKFiQ04SXxFxgZGiYnKCkqNTY3ODk6Q0RFRkdISUpTVFVWV1hZWmNkZWZnaGlqc3R1dnd4eXqCg4SFhoeIiYqSk5SVlpeYmZqio6Slpqeoqaqys7S1tre4ubrCw8TFxsfIycrS09TV1tfY2dri4+Tl5ufo6ery8/T19vf4+fr/2gAMAwEAAhEDEQA/APpGiiigAoprusa7pGVR6scVF9utP+fqH/v4KAJ6Kg+3Wn/P1D/38FH260/5+of+/goAnoqD7daf8/UP/fwUfbrT/n6h/wC/goAnoqD7daf8/UP/AH8FH260/wCfqH/v4KAJ6Kg+3Wn/AD9Q/wDfwUfbrT/n6h/7+CgCeioPt1p/z9Q/9/BR9utP+fqH/v4KAJ6Kg+3Wn/P1D/38FH260/5+of8Av4KAJ6Kg+3Wn/P1D/wB/BR9utP8An6h/7+CgCeioPt1p/wA/UP8A38FH260/5+of+/goAnoqD7daf8/UP/fwUfbrT/n6h/7+CgCeioPt1p/z9Q/9/BR9utP+fqH/AL+CgCeioPt1p/z9Q/8AfwUfbrT/AJ+of+/goAnoqD7daf8AP1D/AN/BR9utP+fqH/v4KAJ6Kg+3Wn/P1D/38FH260/5+of+/goAnoqD7daf8/UP/fwUfbrT/n6h/wC/goAnoqD7daf8/UP/AH8FH260/wCfqH/v4KAJ6Kg+3Wn/AD9Q/wDfwUfbrT/n6h/7+CgCeioPt1p/z9Q/9/BR9utP+fqH/v4KAJ6Kg+3Wn/P1D/38FH260/5+of8Av4KAJ6Kg+3Wn/P1D/wB/BR9utP8An6h/7+CgCeioPt1p/wA/UP8A38FH260/5+of+/goAnoqD7daf8/UP/fwUfbrT/n6h/7+CgCeioPt1p/z9Q/9/BR9utP+fqH/AL+CgCeioPt1p/z9Q/8AfwUfbrT/AJ+of+/goAnoqD7daf8AP1D/AN/BR9utP+fqH/v4KAJ6Kg+3Wn/P1D/38FH260/5+of+/goAnoqD7daf8/UP/fwUfbrT/n6h/wC/goAnoqD7daf8/UP/AH8FH260/wCfqH/v4KAJ6Kg+3Wn/AD9Q/wDfwUfbrT/n6h/7+CgCeioPt1p/z9Q/9/BR9utP+fqH/v4KAJ6Kg+3Wn/P1D/38FH260/5+of8Av4KAJ6Kg+3Wn/P1D/wB/BR9utP8An6h/7+CgCeioPt1p/wA/UP8A38FH260/5+of+/goAnoqD7daf8/UP/fwUfbrT/n6h/7+CgCeioPt1p/z9Q/9/BR9utP+fqH/AL+CgCeioPt1p/z9Q/8AfwUfbrT/AJ+of+/goAnoqD7daf8AP1D/AN/BR9utP+fqH/v4KAJ6Kg+3Wn/P1D/38FH260/5+of+/goAnoqD7daf8/UP/fwUfbrT/n6h/wC/goAnoqD7daf8/UP/AH8FH260/wCfqH/v4KAJ6Kg+3Wn/AD9Q/wDfwUfbrT/n6h/7+CgCeioPt1p/z9Q/9/BR9utP+fqH/v4KAJ6Kg+3Wn/P1D/38FH260/5+of8Av4KAJ6Kg+3Wn/P1D/wB/BR9utP8An6h/7+CgCeioPt1p/wA/UP8A38FH260/5+of+/goAnoqD7daf8/UP/fwUfbrT/n6h/7+CgCeioPt1p/z9Q/9/BR9utP+fqH/AL+CgCeioPt1p/z9Q/8AfwUfbrT/AJ+of+/goAnoqD7daf8AP1D/AN/BR9utP+fqH/v4KAJ6Kg+3Wn/P1D/38FH260/5+of+/goAnoqD7daf8/UP/fwUfbrT/n6h/wC/goAnoqD7daf8/UP/AH8FH260/wCfqH/v4KAJ6Kg+3Wn/AD9Q/wDfwUfbrT/n6h/7+CgCeioPt1p/z9Q/9/BR9utP+fqH/v4KAJ6Kg+3Wn/P1D/38FH260/5+of8Av4KAJ6Kg+3Wn/P1D/wB/BR9utP8An6h/7+CgCeioPt1p/wA/UP8A38FH260/5+of+/goAnoqD7daf8/UP/fwUfbrT/n6h/7+CgCeioPt1p/z9Q/9/BR9utP+fqH/AL+CgCeioPt1p/z9Q/8AfwUfbrT/AJ+of+/goAnoqD7daf8AP1D/AN/BR9utP+fqH/v4KAJ6Kg+3Wn/P1D/38FH260/5+of+/goAnoqD7daf8/UP/fwUfbrT/n6h/wC/goAnoqD7daf8/UP/AH8FH260/wCfqH/v4KAJ6Kg+3Wn/AD9Q/wDfwUfbrT/n6h/7+CgCeioPt1p/z9Q/9/BR9utP+fqH/v4KAJ6Kg+3Wn/P1D/38FH260/5+of8Av4KAJ6Kg+3Wn/P1D/wB/BR9utP8An6h/7+CgCeioPt1p/wA/UP8A38FH260/5+of+/goAnoqD7daf8/UP/fwUfbrT/n6h/7+CgCeioPt1p/z9Q/9/BR9utP+fqH/AL+CgCeioPt1p/z9Q/8AfwUfbrT/AJ+of+/goAnoqD7daf8AP1D/AN/BR9utP+fqH/v4KAJ6Kg+3Wn/P1D/38FH260/5+of+/goAnoqD7daf8/UP/fwUfbrT/n6h/wC/goAnoqD7daf8/UP/AH8FH260/wCfqH/v4KAJ6Kg+3Wn/AD9Q/wDfwUfbrT/n6h/7+CgCeioPt1p/z9Q/9/BR9utP+fqH/v4KAJ6Kg+3Wn/P1D/38FH260/5+of8Av4KAJ6Kg+3Wn/P1D/wB/BR9utP8An6h/7+CgCeimRzxTf6qVH/3WBp9ABRRRQAVXvryLT7GW6nYKkSliTViuQ+KMzweAbtozgsyIfoTg/wA62w9L21aFP+ZpfezKtU9lSlU7Jv7jyjxT461LXr1xDcSQWgJCKh2lh7/4VyzMWYliST1JpKK/V6GHpYeChSVkfm9atUrTc6juwooorYyCiiigAooooAKKKKACiiigAooooAKKKKACiiigAooooAKKKKACiiigAooooAKKKKACiiigAooooAKKKKACiiigAooooAKKKKACiiigAooooAKKKKACiiigAooooAKKKKACiiigAooooAKKKKACiiigAooooAKKKKACiiigAooooAKKKKACiiigAooooAKKKKACiiigAooooAKKKKACiiigAooooAKKKKACiiigAooooAKKKKACiiigAooooAKKKKACiiigAooooAKKKKACiiigAooooAKKKKACiiigAooooAKKKKACiiigAooooAKKKKACiiigAooooAKKKKACiiigAooooAKKKKACiiigAooooAKKKKACiiigAooooAKKKKACiiigAooooAKKKKACiiigAooooAKKKKANXSPEmqaJcpLZXUgVT/q2YlT+Hb8K998IeJIvE2iJdJxIPlkX0NfNteq/BOZzcapAT8iqjge5OP6Cvms/wdKWGeIStKNvnd2PfyXFVI11RbvF3/zPW6KKK+BPswrjPiv/AMk/uv8ArrF/6EK7OuM+K/8AyT+6/wCusX/oQrswH+90v8UfzRy4z/dqn+F/keBUUUV+rn5uFFFFABRRRQAUUUUAFFFFABRRRQAUUUUAFFFFABRRRQAUUUUAFFFFABRRRQAUUUUAFFFFABRRRQAUUUUAFFFFABRRRQAUUUUAFFFFABRRRQAUUUUAFFFFABRRRQAUUUUAFFFFABRRRQA6ON5pVihRpJHIVUUZLE9ABXSTeBr2xgR9Z1DTdKkkGVgu5z5hHrtRWrqPhVpVta6bqfii8jDmzV1h3D7u1dzEe+CBn6151qF/capqM97eyGSedy7sfU/07V50cRUr4idKk7KFrvdtvovTqd3sYUqEatRXcr2Xkur/AENk+CNVaGa4tXtbyzhheZru2m3x4RcleBkN6AgVztbXhrxA+hXN0GLta3ltJBPGnOdykKcZHIOPwzVfRdAvtenkSxVFjhXfPPK4SOFfVmPStozqU3J12uVWs9vv8zKUITjH2SfM27rfta34mbW74W8Mt4o1NbNL+2tGJwBKSXfgk7VHXAHqKtf8IJqFxps95pN7p+rLb/62OymZnUeu1lGenbr2p3w2/wCSiaV/vP8A+i2rOviVLD1J0ZaxT+Wl9mVSoSjWgqsdJP79bbmLrem/2Prl5p3m+d9llaPzNu3dg9cZOKgsrQ315HbiaGDef9ZPIERfck1reNFLeOtXVQSTduAAOvNTHwTdwTW9tqOo6bp95cDKWlzMwkGem7apVc9skVccRFUYOcrNq/4auw61B/WKkaa0i2vx01F8X+DpPCIsBNepdPdxs58tMKmMdDnnr1wKZZeC7640mLUr28sNLtZz+5e/mMZlHqoAJxXVfGCNoV0COQYdLZ1YehGytTxp4Yl8baPput+GJUnSK3CC13Y+X/Z7Bh0IPp7V5NPMKn1ejKpK3O3eVtFZu3lr+h6E8DB16sYRvypNRvq7pX89Dhr/AMBapY6RNqq3Fhd6fEm83Nrcb1Y7gu0cZzz6Y4PNcxW7Z6pdaJpms6LfRTxC8iVTC64KSK6kEg9OMj8q6j4deG7C607UtUmv4HuorSRUhw2LfcrDe5x1wDwM8V3yxM8LSlUrvmSelluna3fr1OSGGhiasKdL3W979P67bnnVFabaFPLq8OnaXPBqs8wBQ2ZYrnng7lXGMZPbHetiD4f3l1dyWVrq+jzX0YJa0S5JkyOqj5dpI788V1zxVGCvKVuvy7+XzOWOHqzdoq5ylFatn4a1W+1p9Kittl5G22SOV1Tac47nn8M57V0UXwn8QzX9xah7JTAB+8aVgrkgHC/Lk4yM8Y561NTG4ak7TmlpffoVTwtep8EG+hxFFb0HhC+bS5dSvp7XTrKOUwia6dsSOCQQoRWJwQe3Y0mu+EtQ0Gxtb6aS2urK7/1VzayFkJxnHIBzj2qliqLnyKWu3z7evkS8PVUeZx8/l39DCorZ0vwxe6ppk+pGW3s9Ptzh7q6Yqm7+6MAkn6CtMfDjXLiyhvNKNnqdrMMrNbXICjtg+ZtOfalPF4eDtOaXTyv2vtfyHDDVpq8Yt/12OTorV0/w5f6hdXMSCKBLMkXNxPIFihwcct9emM57VoXPgbUE0OTV7C7sdUtIs+a1lKzGMDqSGUGnLFUYS5ZSX/D7Cjh6s1eMf6W5Q0Lw5f8AiGaVbFY0igXfPcTvsjiX1Zq17f4eX+obl0jVdH1KRfvRWt3lgM9cMo4ro/Adla+Jfh1qvh2G5W2vnm80n+8PlKk+oyuD6VyE2ma34F8Q21zeW8lu8EoZJV5SQA8gMODkZ464PNed9aq1a1SlCajKOya303+flsdn1eFOhCrKLknu09tdv+HMW9tHsNQuLOYqZLeVonKnglTg49uKgq/qEp1jxDdS2UUjm8uneKPbljuYkDA781t2vgC9urz7CNV0mPUMZNk9yTID/d4Uru9s16EsRClBOq7O3/DnGqMqk2qSur/8McrRW/Y+C9bv9bl0pLZIrqFtsomlVQvGfXnjnjPFayfCrxA63beZZKLUkZaVv3uOpX5enUc45FTPHYam7SqL7+5UMHiJ/DB9tupxVFdZd/D+7s/D39tvq+lSWGMrJFJK285wAB5fXPHP44rM0Hw4/iAXHkajY2rW0bSyLdM64jGMtkIRjn1z7VUcXRlBzUtFo9xPDVYyUWtXt5jvDeh2OttdDUNbttJEEe9DOB+9PPAyR/U89KxK6XRfAmra9HNNYPam2iDHz3lwHAJGQuN3ODjKisXTNLvNYv47LTYGnuJPuov8yTwB7mlCtBzm/aXStdae7/XnsE6c1CHuWvfXv/w3kVKK6u3+H9/ffaU0vUtLv7m2XdJbW9wxf8MqFP54rD03Rb7VdQaztID5sYJlMh2LEo+8zk/dA96qOJozTaktN/ImWHqxsnHfYoUV1MXgHULyxuLnSNQ03VDb/wCshs52aQfgyjP9e2ao+GfCmoeK72a101oI3hj8x2ncqMZxjgE5/Cl9bocsp8ytHfy9R/VqycY8vxbeZiVc0ywTUboQPfW1mzEKrXO/axJxjKq2PxwKguIJLW6lt5gBJC5RwDnBBwaLb/j7h/31/nW0tYe6zF+49Vsb3inwRqnhKO3k1F7eWO4JVXt2ZgpHY5Uc/wCBrnK951tI/GOleINAwDe6dKHgz1OVDKfx+ZfpXhUNvLPdR20SFppHEap3LE4A/OvMyzGzxFJ+2+KO/o1dP7j0sxwsKE06Xwu/3p2aOj8N+AdW8UabLfWUtrBbxOULXLsu4gZOMKeBmsG/tY7K6MMV5b3gA5lt9+3Pp8yqT9cY969z8NvBZ6Zqug2ZVotJtVikcfxzMrtIfz4/CvE9E0S+8QamtjpkXmTMCxJOFRR1YnsOazwWOnWqVZVXaEbW9Gr3fyKxWEhSo0lBXlK6fqnay+ehn0V1Ft4EvdQhvG0jUtN1KSz/ANbDbSPv/DcgDfUHFUvDvhLVPFExTTVhCqSGkllChfw+8eo6A9a9H63Q5ZScklHe+lji+rVrpcu+xiUV2Nj8MdcvZZIzNY2zq7JGtxMVaYKcFkUKSV46kCuek0PUY9eOjG2Zr8S+V5K9S319O+emOaKeLoVG1CadtWKeGrU4qUotJ6GfRXWRfD+9n1aTSotV0ptSjXc1p5r7umdudm0n2Brm5bC6h1JtPkgcXay+UYQMtvzjHHXmqp4ilUdoS8/l39PMVShUpq8l5fPt6leiuqXwDe/2lHpk2p6XBqUi7hZyTNvBxnaSFK7vbNZ+teEda8PW6z6vaLBE0nlqwmR8tgnorE9Ae1THF4eclFTV3t5+nf5FSw1aMXJxdlv5evb5mLRXSW/gq8ka3jvtQ03TLi5AMVvezlZCD0JAU7c++DUV34L1uz18aPLbJ9pZdyHzVCOucZDEgdePX2oWLoN8vOu4vq1bl5uVmBRXbp8J/EL6i1oXslKxCQytK2zJz8o+XJbjJwMdOa468tZbG+ntLgAS28jROAcjcpwf1FOjiqFdtUpJhUw9akr1ItENFFFdBgFFFFABRRRQAUUUUAFFFFABRRRQAUUUUAFFFFABRRRQAUUUUAFFFFABRRRQAUUUUAFFFFABRRRQAUUUUAFFFFABRRRQAUUUUAFFFFABRRRQAUUUUAFFFFABRRRQAUUUUAFFFFABXqPwS/5COrf9co/5tXl1eo/BL/kI6t/1yj/m1ePnn/IvqfL/ANKR6mUf77D5/kz1+iiivzQ++CuM+K//ACT+6/66xf8AoQrs64z4r/8AJP7r/rrF/wChCuzAf73S/wAUfzRy4z/dqn+F/keBUUUV+rn5uFFFFABRRRQAUUUUAFFFFABRRRQAUUUUAFFFFABRRRQAUUUUAFFFFABRRRQAUUUUAFFFFABRRRQAUUUUAFFFFABRRRQAUUUUAFFFFABRRRQAUUUUAFFFFABRRRQAUUUUAFFFFABRRRQB618NCuq/DrXNGiYfaT5gC55xJHgH8wa8mZWRyrqVZTggjBBrT8P+IL7w1qyX+nOA4G10YZWRe6mui1bW/BfiGY319p+qadfSczfYjG8bt6/MRz9APxryKdOphMTUlyuUJ66bp9brzPTc6eIw0INpShffqn+qONhhluZlit4nlkY4VEUsx+gFej2lsIPgFdzWmRJcT7pyvUgShcfTAH5muUn1jS9PtpoPDNrco867JL28dTKFPVUVeFB7nJODirnhDxmug2l1peq2rXuk3gIliU4ZCRglfqO3Hrmqxka1enGUI/DJO3Vpb/8AA9CcLKlRqWnLdNXXS6tcm+Fd7La+PrSKMnZdJJFIvqNpYfqorU0uC3tvj0YrTAiF3KQB0BMbEj8yayNO1/w94ZuptQ8PQ6hc3xRktzfLGqQZGN3yklj+VVfCGuafpPiddb1yS9mmjZnVIIlbzGYEEsWYY654BzWFejOpKtWjFpOHKl1b16fgbUqkKcIUZNX5+a/RL/g/1qdPotlBe/HW9FzgiG4mmVT/ABMOn5dfwrjvGTzyeNtXN1nzPtcg5/ug4X/x3FX9U8TWkPjYeI/DbXSyNMZXiu4lUAnqAVY5ByfTFaev+JvBviKZdSvdJ1OLUto8yOCRFimI6Bm5OO2QAcUUY1qVaFVwbTgo+aa/z7l150q0asFJJ87kuzT/AFRd+LzFo/DzMck2rEk9/uVzNpq2veANduLS2uVV42Hmw/eik4BBwcdQRzwa0vG3jPSfE1laQ2ulzJLbRbEmlk27M4yAoJz06k1Pr/ijwj4ouvO1HTdStJo1CJc2rRlpVA43qxx+Rz71GFhVp4anRrUm4+9daPrdaX9fMMRKnUrSq06iUvds9e1mdTFeaT8VPDF4LizW01WyjyHHJQ4JBDdSpI5B/wADXPfC7/kCeK/+vIf+gyVmr4s0jQNBu7DwjbXgnvl2XF7elQ4X0VVJHc8/z7Q+BPFll4al1CLVbaae0v4RG/k4LDGexI4IY96xeDqxwtaFKL5W04xe+jTf/ARvDF0/rFGpVa5lfma/A3fg9bI8+t3KAG6itlSE+m7dn9VWuA069n0/V7a8hLCaCZZBjqSD0/Gug07xfB4c8SxXnhuzeOxjj8l4rhx5lwpOSXI4DZ6Y6YHvU91qvguTXDq8Nnqu8v5xsSIxE0mc43ZJC57Y/wAK7IqpDEVKkoNxmlbysrWfrv2OGfs54eNKM0pQb+d7ar0tY6X4gw26fFLw7LFgTSvAZQB6S4BP8vwrD+KWoXkPxBlMNzLEYYEWMxuVKgrkgY9cmstPE0Gq+Nl17xJJcqIpUljitI1fG0gqnzMMDjrz39ak8d67oviXVRqelC+iuHCpLFcRIFIAwCCHJz0GMfj64YXC1KNWjCor8sGm+l207fodWIxVOrTrSg7czVu7t1/UlgstUuvBds/iLVPsHh+KUtao0QeWV+fuKME9W5YgVu+IjZyfBPSzp4nNst4REbkqZPvSDnHA7/hWenjHw9qfgqy0XxJYXzS2OBFJZsoBwMDljxkcHg+tOm8daDP4Ji0dtDkWS3lMkEAfMIOTgs2dzfeyRjk+gqJwxEpxbpv3Z3srJW1182+rY6U6EYv31rC2t737eSXT9S5ZR/8ACUfB5NK0dQ+oabP5ktsv3nBZjkeuQ35gimQk+GfhFf6fryeTd6jMWtbOQ4kAwnzFeq4Kk8+3rRp954f0n4f6dY+L9KuCbmVrmJbZ8PKvRZG+ZcDB2gEnpmm29h8OtduI9P01tSsru4ISF2BYbj0BHPH5fWsno5KUZcnO5XSvs+6e1/K/Q0i/dg1KPOocurtvtpbs++u4tpAlt8EluorCC9DXxkuY5TIBgEqD8jKePl6nHPSsbQ/G97pKzWmhaHp6G8wrxos8hk4IGA0h9T0qfwj40HhKS90nU7cahpksjLIiYOD90kA8MCB0NSal4q8LWdvM3g7QpbS+uFZDdXLf6kNwSi7mAOCRkYxXR7Kop1KVSm5qTunf3de+vT0MOeHJCcZqEoKzVteu2nW/dHMQQahpdjaa7ZzNCrTvFHJExDI6gHn6hvxwa9H8KfEdNfki0HxdaQ3IuiIkn2Da7HoHXpknuO+OO9ctonijRLbwgdB1zS57yOS4aZpInCmLgBSvqeD6fjml0zVPBeh366jZ22sX1zAd9vDdeUkYcdCSpJ4+n4Vpi6X1mMo1aT5lfla/DW+nz9TLC1HQcZUqiSfxJ/5W107anSeHPDdnovxonsYfmht4Gntw5yVLKMD3xuNchLrh0bxDJIfD+nR39pcE72e5yHDdcGb1qsPF2pjxh/wkZdftnmbyuPl24xsx6beK67U/G3gfXGW+1fw3dS6iF52MFViOgLBxuHuV6VDpYilUUqsXNOKTs+qv5q6dzX2mHqwlCm1C0m1daNP5O2xU0LXb/wAR/FbRtR1S2it5ZFwvlRsiuoV8N8xOe4z7VlePr67Tx/q+y5mXLeSdrkZTaPl+ntU2j+K9PHjNdf1pLiIW+FtbSxhUoiBSoXJYYAB7Dn2rO8ZanpOt69NqekG8U3LbpYrmJVCnAHylWOc+hFa0aLjjIvktFQt5J3va5lUqqWFkue8ua/ZtWtf7zqPhzcR694f1bwhevxNGZrUtztbvj6Ha351hXNvJ4a8Fy29whj1DVp2jdT1SCJsEf8Cf8wtYug6vLoWvWmpQZ3W8gZgP4l6MPxBIq34w8Q/8JP4ln1BFdICAkCOBlUHrjuSSfxrT6rUji3b+HK0n/iX+ej+RmsRB4ZX+ON0vR/5a/ejrvg8f32uDt9lX/wBmqH4b2pk8L+Kp7ME3wtPLi2/eAKuePqQPyFUvAfinQ/C1vePfjUJri8QRssMKbEUE9CXBJOfQVn+GfFa+D/Ectxpnm3enygJJHOgjd165wCQGBzjk59s8clfD1qk8RyR35Gr7Pl3R0Ua1KnCg5v4XK/dX2f6mPo2t6joF8bvSLg285QxlgitlTjjDAjsK7zwvbzv4C8WXc9oLnUWm/wBIhnDqWAwzAhSrDqx4I/pVXUPFngpLiTUtG8OTHVC29DcnEKP/AHtgcg4POMD8KyPCPji78Na1cXVwhu4L1s3UZOCxyTuHvyfrmtsRGtiaTnClyy0etk3Z3tddPUijKlhqsVOpzR12vZXTV/X0G6H42m0C8afRdE02CeVfLJBuH3DIOMNKe4FY0uo39vrF1dRvLYXUkj+asDNGUJOWXrkDPGD6V2d94u8GW0r6h4f8NyLqhOY3uQBFE394IHIyOoGBWD4S1rRtO1e6uvFGnNqazRnb8quQ5OSSGIHPr1Fa037s6you9lo9W/xei8zKoknGl7VWv02XnstTm6ltv+PuH/fX+dJcPHJdSvBH5UTOSkec7FzwM98Vb0g6Yt6smsS3aQxsGC2sKuz88jLMu36816cpWg3Y85xu3FM7yTX/APhH/jfdzSNttp5Fgnz0Csi4P4HB/OtDVvDkXhjxpqfiiWNfsNvB9qt1PRrh8qE/76y3tkVw/jPVNG13WptU0pr5JbhlMkNzCgVcLjIYOT2HGPXmrPiTxvN4g8L6TpTq6vajNy7f8tWA2qQfpknPc14CwdWXspQVrxUZ+iX/AA6v5nufWqSlVU9Upc0fW/8AWnkdV8KZpLjSPE007l5JAHdj1YlXJNcZ4Kj8QyazIvheXyJmiKzTOF2JHkZLEggdB2z6V0Hg7xf4Z8LaVd2zjVbqS8A81xbxoFGCMAeYfU81Q8I+K9J8J6xeBI7u9028iCOXiVJVIJwMByCMHHUU3CrGeJlCnfm5bJrR2Vn/AMMyIypunh4znazldp6q7uv66HRfDC30ey8VXVtp19cX9yLR/MmEYjgIDJwoOWY57nA9qwfhj8vxKiVeBtmGB6bTVrw94x8K+GNekn0vSb77NLEytNK6tMMkEKFyFC8epJ49KreHvFHhvR/Fb6x9jvYI4laO3t4UVywPV3dnHzHJ4AwOOeKznTrv2/uSfPFJXtvr29S1Oly0oqUVyzu7X2uu/oUkupz8XllaZ2k/tkJuZsnb5u3H0xx9K1vGC6ovxikPh0N/aJ8sxFADz5YBJzxjHrxWQmp+HF8cf20ZtUNuLn7WIfs0e/fv3bc+ZjGe/wCGO9a13450hPiDB4n06K+fI8u4t54kXC7NuVYOeenBH41vONT2sZQhe1NrVaX00f8AViFKn7OcZT3mnvrbq195a8OWlnZfEy2/tTVJNQ1x53Mv2aMLDHIVbcGY/ePXhQBnvVG+1G10b43S3t4MW8V5lyB93cmN34E5p48X+E7HxcmuaXpF880kxkma4kUCLOdxjUE5JyfvHHp7INUsfFHxIs7nRtFaWPz/ALRcfaWAZ8AZZsZCquM45yfrisFCp7SVSrB8rptO9lby8uy/pms5wdPkpyTlzprd3/zff+kXde8K6vcfFCPUrK3aaynuIrlLtP8AVoo2klm6DGPx7VD4gv8ATfEPxj077KyT2yywwyOMFZWDZPPccgfhT9Q1n4bapq1zc3djqhlkkZnmDHbIc9QN+QPTgVi+IdN0Oz0608Q+D7y5EYu/KMc4+aKQDeCpx2/HtzRh1KTgqqlGXLyp8tlquru+3kGIty1PZOLTfM9bvTsrLv5lrx9ex2XjfUI73QbGd2cMs0r3AaRSowfllA9uAOlUNa8Wap4qn0uXUbO3hjt5tkUsEbgMcrlcsxzjj866O4+IPhbxFp8A8YaFPPeQjG+2wAfodykA+nIrmbvX9L1TW7Tz7abTdGsB/o9rZxrI/UEklmHLY5PPQdetb4WE1GKq0mpQVr3utre7r19Dnxkoz53SqK0+lrPXXXTp3ub/AMXr26g8bWnkXEsXk2itGUcqUJZskEdCcD8q86ZizFmJJJyST1rsfH3iPQ/FV5HqGnjUIbtIxEY54k2MoJOchyQeT2P4VxtduW03TwkIyjZpWZz5jUVTEylF3TCiiivROAKKKKACiiigAooooAKKKKACiiigAooooAKKKKACiiigAooooAKKKKACiiigAooooAKKKKACiiigAooooAKKKKACiiigAooooAKKKKACiiigAooooAKKKKACiiigAooooAKKKKACvUfgl/yEdW/65R/zavLq9R+CX/IR1b/rlH/Nq8fPP+RfU+X/AKUj1Mo/32Hz/Jnr9FFFfmh98FcZ8V/+Sf3X/XWL/wBCFdnXGfFf/kn91/11i/8AQhXZgP8Ae6X+KP5o5cZ/u1T/AAv8jwKiiiv1c/NwooooAKKKKACiiigAooooAKKKKACiiigAooooAKKKKACiiigAooooAKKKKACiiigAooooAKKKKACiiigAooooAKKKKACiiigAooooAKKKKACiiigAooooAKKKKACiiigAooooAKKKKACiiigAooooAKKKKACiiigAooooAKKKKACiiigAooooAKKKKAO3h+IkN1pMFj4l8P2mr/Z0CRSl/KdVHvg+nbFULjxdaW9u0fhnQbfR3kUq1x5rTzAHrtdvu8ccc1y9FcUcBh4u6Xyu7fde34HW8ZXaSb262V/vtf8AEKKKK7TkCiiigAooooAKKKKACiiigAooooAKKKKACiiigAooooAKKKKACiiigAooooAKKKKACtfw14kvPC2rfbrBY3ZkMckcoyrqSDj26CsiioqU4VIOE1dMqE5QkpRdmjtLrxh4ZvJfOm8D2wm65jvWRSfdVUA1z2ta7ca1JEHihtbaAEQWtsmyOIHrgep7k9azKKwpYSjSacU9O7bt6Xbt8jepiqtRNSe/ZJX9bJXCiiiuo5gooooAKKKKACiiigAooooAKKKKACiiigAooooAKKKKACiiigAooooAKKKKACiiigAooooAKKKKACiiigAooooAKKKKACiiigAooooAKKKKACiiigAooooAKKKKACiiigAooooAKKKKACiiigAr1H4Jf8hHVv8ArlH/ADavLq9R+CX/ACEdW/65R/zavHzz/kX1Pl/6Uj1Mo/32Hz/Jnr9FFFfmh98FcZ8V/wDkn91/11i/9CFdnXOeOdFuPEPhltLsniSeeVNrSkhRt+Y5IBPQHtXVg5xhiac5OyUl+Zz4qLnh5xju0/yPnKivQv8AhTHiH/n80z/v7J/8RR/wpjxD/wA/mmf9/ZP/AIiv0f8AtbA/8/EfCf2bi/8An2zz2ivQv+FMeIf+fzTP+/sn/wARR/wpjxD/AM/mmf8Af2T/AOIo/tbA/wDPxB/ZuL/59s89or0L/hTHiH/n80z/AL+yf/EUf8KY8Q/8/mmf9/ZP/iKP7WwP/PxB/ZuL/wCfbPPaK9C/4Ux4h/5/NM/7+yf/ABFH/CmPEP8Az+aZ/wB/ZP8A4ij+1sD/AM/EH9m4v/n2zz2ivQv+FMeIf+fzTP8Av7J/8RR/wpjxD/z+aZ/39k/+Io/tbA/8/EH9m4v/AJ9s89or0L/hTHiH/n80z/v7J/8AEUf8KY8Q/wDP5pn/AH9k/wDiKP7WwP8Az8Qf2bi/+fbPPaK9C/4Ux4h/5/NM/wC/sn/xFH/CmPEP/P5pn/f2T/4ij+1sD/z8Qf2bi/8An2zz2ivQv+FMeIf+fzTP+/sn/wARR/wpjxD/AM/mmf8Af2T/AOIo/tbA/wDPxB/ZuL/59s89or0L/hTHiH/n80z/AL+yf/EUf8KY8Q/8/mmf9/ZP/iKP7WwP/PxB/ZuL/wCfbPPaK9C/4Ux4h/5/NM/7+yf/ABFH/CmPEP8Az+aZ/wB/ZP8A4ij+1sD/AM/EH9m4v/n2zz2ivQv+FMeIf+fzTP8Av7J/8RR/wpjxD/z+aZ/39k/+Io/tbA/8/EH9m4v/AJ9s89or0L/hTHiH/n80z/v7J/8AEUf8KY8Q/wDP5pn/AH9k/wDiKP7WwP8Az8Qf2bi/+fbPPaK9C/4Ux4h/5/NM/wC/sn/xFH/CmPEP/P5pn/f2T/4ij+1sD/z8Qf2bi/8An2zz2ivQv+FMeIf+fzTP+/sn/wARR/wpjxD/AM/mmf8Af2T/AOIo/tbA/wDPxB/ZuL/59s89or0L/hTHiH/n80z/AL+yf/EUf8KY8Q/8/mmf9/ZP/iKP7WwP/PxB/ZuL/wCfbPPaK9C/4Ux4h/5/NM/7+yf/ABFH/CmPEP8Az+aZ/wB/ZP8A4ij+1sD/AM/EH9m4v/n2zz2ivQv+FMeIf+fzTP8Av7J/8RR/wpjxD/z+aZ/39k/+Io/tbA/8/EH9m4v/AJ9s89or0L/hTHiH/n80z/v7J/8AEUf8KY8Q/wDP5pn/AH9k/wDiKP7WwP8Az8Qf2bi/+fbPPaK9C/4Ux4h/5/NM/wC/sn/xFH/CmPEP/P5pn/f2T/4ij+1sD/z8Qf2bi/8An2zz2ivQv+FMeIf+fzTP+/sn/wARR/wpjxD/AM/mmf8Af2T/AOIo/tbA/wDPxB/ZuL/59s89or0L/hTHiH/n80z/AL+yf/EUf8KY8Q/8/mmf9/ZP/iKP7WwP/PxB/ZuL/wCfbPPaK9C/4Ux4h/5/NM/7+yf/ABFH/CmPEP8Az+aZ/wB/ZP8A4ij+1sD/AM/EH9m4v/n2zz2ivQv+FMeIf+fzTP8Av7J/8RR/wpjxD/z+aZ/39k/+Io/tbA/8/EH9m4v/AJ9s89or0L/hTHiH/n80z/v7J/8AEUf8KY8Q/wDP5pn/AH9k/wDiKP7WwP8Az8Qf2bi/+fbPPaK9C/4Ux4h/5/NM/wC/sn/xFH/CmPEP/P5pn/f2T/4ij+1sD/z8Qf2bi/8An2zz2ivQv+FMeIf+fzTP+/sn/wARR/wpjxD/AM/mmf8Af2T/AOIo/tbA/wDPxB/ZuL/59s89or0L/hTHiH/n80z/AL+yf/EUf8KY8Q/8/mmf9/ZP/iKP7WwP/PxB/ZuL/wCfbPPaK9C/4Ux4h/5/NM/7+yf/ABFH/CmPEP8Az+aZ/wB/ZP8A4ij+1sD/AM/EH9m4v/n2zz2ivQv+FMeIf+fzTP8Av7J/8RR/wpjxD/z+aZ/39k/+Io/tbA/8/EH9m4v/AJ9s89or0L/hTHiH/n80z/v7J/8AEUf8KY8Q/wDP5pn/AH9k/wDiKP7WwP8Az8Qf2bi/+fbPPaK9C/4Ux4h/5/NM/wC/sn/xFH/CmPEP/P5pn/f2T/4ij+1sD/z8Qf2bi/8An2zz2ivQv+FMeIf+fzTP+/sn/wARR/wpjxD/AM/mmf8Af2T/AOIo/tbA/wDPxB/ZuL/59s89or0L/hTHiH/n80z/AL+yf/EUf8KY8Q/8/mmf9/ZP/iKP7WwP/PxB/ZuL/wCfbPPaK9C/4Ux4h/5/NM/7+yf/ABFH/CmPEP8Az+aZ/wB/ZP8A4ij+1sD/AM/EH9m4v/n2zz2ivQv+FMeIf+fzTP8Av7J/8RR/wpjxD/z+aZ/39k/+Io/tbA/8/EH9m4v/AJ9s89or0L/hTHiH/n80z/v7J/8AEUf8KY8Q/wDP5pn/AH9k/wDiKP7WwP8Az8Qf2bi/+fbPPaK9C/4Ux4h/5/NM/wC/sn/xFH/CmPEP/P5pn/f2T/4ij+1sD/z8Qf2bi/8An2zz2ivQv+FMeIf+fzTP+/sn/wARR/wpjxD/AM/mmf8Af2T/AOIo/tbA/wDPxB/ZuL/59s89or0L/hTHiH/n80z/AL+yf/EUf8KY8Q/8/mmf9/ZP/iKP7WwP/PxB/ZuL/wCfbPPaK9C/4Ux4h/5/NM/7+yf/ABFH/CmPEP8Az+aZ/wB/ZP8A4ij+1sD/AM/EH9m4v/n2zz2ivQv+FMeIf+fzTP8Av7J/8RR/wpjxD/z+aZ/39k/+Io/tbA/8/EH9m4v/AJ9s89or0L/hTHiH/n80z/v7J/8AEUf8KY8Q/wDP5pn/AH9k/wDiKP7WwP8Az8Qf2bi/+fbPPaK9C/4Ux4h/5/NM/wC/sn/xFH/CmPEP/P5pn/f2T/4ij+1sD/z8Qf2bi/8An2zz2ivQv+FMeIf+fzTP+/sn/wARR/wpjxD/AM/mmf8Af2T/AOIo/tbA/wDPxB/ZuL/59s89or0L/hTHiH/n80z/AL+yf/EUf8KY8Q/8/mmf9/ZP/iKP7WwP/PxB/ZuL/wCfbPPaK9C/4Ux4h/5/NM/7+yf/ABFH/CmPEP8Az+aZ/wB/ZP8A4ij+1sD/AM/EH9m4v/n2zz2ivQv+FMeIf+fzTP8Av7J/8RR/wpjxD/z+aZ/39k/+Io/tbA/8/EH9m4v/AJ9s89or0L/hTHiH/n80z/v7J/8AEUf8KY8Q/wDP5pn/AH9k/wDiKP7WwP8Az8Qf2bi/+fbPPaK9C/4Ux4h/5/NM/wC/sn/xFH/CmPEP/P5pn/f2T/4ij+1sD/z8Qf2bi/8An2zz2ivQv+FMeIf+fzTP+/sn/wARR/wpjxD/AM/mmf8Af2T/AOIo/tbA/wDPxB/ZuL/59s89or0L/hTHiH/n80z/AL+yf/EUf8KY8Q/8/mmf9/ZP/iKP7WwP/PxB/ZuL/wCfbPPaK9C/4Ux4h/5/NM/7+yf/ABFH/CmPEP8Az+aZ/wB/ZP8A4ij+1sD/AM/EH9m4v/n2zz2ivQv+FMeIf+fzTP8Av7J/8RR/wpjxD/z+aZ/39k/+Io/tbA/8/EH9m4v/AJ9s89or0L/hTHiH/n80z/v7J/8AEUf8KY8Q/wDP5pn/AH9k/wDiKP7WwP8Az8Qf2bi/+fbPPaK9C/4Ux4h/5/NM/wC/sn/xFH/CmPEP/P5pn/f2T/4ij+1sD/z8Qf2bi/8An2zz2ivQv+FMeIf+fzTP+/sn/wARR/wpjxD/AM/mmf8Af2T/AOIo/tbA/wDPxB/ZuL/59s89or0L/hTHiH/n80z/AL+yf/EUf8KY8Q/8/mmf9/ZP/iKP7WwP/PxB/ZuL/wCfbPPaK9C/4Ux4h/5/NM/7+yf/ABFH/CmPEP8Az+aZ/wB/ZP8A4ij+1sD/AM/EH9m4v/n2zz2ivQv+FMeIf+fzTP8Av7J/8RR/wpjxD/z+aZ/39k/+Io/tbA/8/EH9m4v/AJ9s89or0L/hTHiH/n80z/v7J/8AEUf8KY8Q/wDP5pn/AH9k/wDiKP7WwP8Az8Qf2bi/+fbPPaK9C/4Ux4h/5/NM/wC/sn/xFH/CmPEP/P5pn/f2T/4ij+1sD/z8Qf2bi/8An2zz2ivQv+FMeIf+fzTP+/sn/wARR/wpjxD/AM/mmf8Af2T/AOIo/tbA/wDPxB/ZuL/59s89or0L/hTHiH/n80z/AL+yf/EUf8KY8Q/8/mmf9/ZP/iKP7WwP/PxB/ZuL/wCfbPPaK9C/4Ux4h/5/NM/7+yf/ABFH/CmPEP8Az+aZ/wB/ZP8A4ij+1sD/AM/EH9m4v/n2zz2ivQv+FMeIf+fzTP8Av7J/8RR/wpjxD/z+aZ/39k/+Io/tbA/8/EH9m4v/AJ9s89or0L/hTHiH/n80z/v7J/8AEUf8KY8Q/wDP5pn/AH9k/wDiKP7WwP8Az8Qf2bi/+fbPPaK9C/4Ux4h/5/NM/wC/sn/xFH/CmPEP/P5pn/f2T/4ij+1sD/z8Qf2bi/8An2zz2ivQv+FMeIf+fzTP+/sn/wARR/wpjxD/AM/mmf8Af2T/AOIo/tbA/wDPxB/ZuL/59s89or0L/hTHiH/n80z/AL+yf/EUf8KY8Q/8/mmf9/ZP/iKP7WwP/PxB/ZuL/wCfbPPaK9C/4Ux4h/5/NM/7+yf/ABFH/CmPEP8Az+aZ/wB/ZP8A4ij+1sD/AM/EH9m4v/n2zz2ivQv+FMeIf+fzTP8Av7J/8RR/wpjxD/z+aZ/39k/+Io/tbA/8/EH9m4v/AJ9s89or0L/hTHiH/n80z/v7J/8AEUf8KY8Q/wDP5pn/AH9k/wDiKP7WwP8Az8Qf2bi/+fbPPaK9C/4Ux4h/5/NM/wC/sn/xFH/CmPEP/P5pn/f2T/4ij+1sD/z8Qf2bi/8An2zz2ivQv+FMeIf+fzTP+/sn/wARR/wpjxD/AM/mmf8Af2T/AOIo/tbA/wDPxB/ZuL/59s89or0L/hTHiH/n80z/AL+yf/EUf8KY8Q/8/mmf9/ZP/iKP7WwP/PxB/ZuL/wCfbPPaK9C/4Ux4h/5/NM/7+yf/ABFH/CmPEP8Az+aZ/wB/ZP8A4ij+1sD/AM/EH9m4v/n2zz2ivQv+FMeIf+fzTP8Av7J/8RR/wpjxD/z+aZ/39k/+Io/tbA/8/EH9m4v/AJ9s89or0L/hTHiH/n80z/v7J/8AEUf8KY8Q/wDP5pn/AH9k/wDiKP7WwP8Az8Qf2bi/+fbPPaK9C/4Ux4h/5/NM/wC/sn/xFH/CmPEP/P5pn/f2T/4ij+1sD/z8Qf2bi/8An2zz2ivQv+FMeIf+fzTP+/sn/wARR/wpjxD/AM/mmf8Af2T/AOIo/tbA/wDPxB/ZuL/59s89r1H4Jf8AIR1b/rlH/Nqof8KY8Q/8/mmf9/ZP/iK7D4eeC9R8Iajef2lNay/aohs+zuzY2nnOVH94V5eb5hha2CnTpzTbt+aPRyzBYmli4TnBpK/5M76iiivgj7IKguP9fa/9dT/6A1T1Bcf6+1/66n/0BqAJ6KKKACiiigAooooAKKKKACiiigAooooAKKKKACiiigAooooAKKKKACiiigAooooAKKKKACiiigAooooAKKKKACiiigAooooAKKKKACiiigAooooAKKKKACiiigAooooAKKKKACiiigAooooAKKKKACiiigAooooAKKKKACiiigAooooAKKKKACiiigAooooAKKKKACiiigAooooAKKKKACiiigAooooAKKKKACiiigAooooAKKKKACiiigAooooAKKKKACiiigAooooAKKKKACiiigAooooAKKKKACiiigAooooAKKKKACiiigAooooAKKKKACiiigAooooAKKKKACiiigAooooAKKKKACiiigAooooAKKKKACiiigAooooAKKKKACiiigAooooAKKKKACiiigAooooAKKKKACiiigAqB/8AkIw/9cpP5pU9QP8A8hGH/rlJ/NKAJ6KKKACoLj/X2v8A11P/AKA1T1Bcf6+1/wCup/8AQGoAnooooAKKQkKpLEAAZJPasH/hPfB//Q16J/4MYf8A4qgDforIHizQXjtJINWtbiO9uBa28ltIJlklP8GUyM/WtegAoopGYKpZiAAMkntQAtFZtl4j0TUpZItO1jT7uSL/AFiQXSOU5xyAeOeK0qACiqd3q1jY31nZ3dwI7i+cx28eCTIwUsRwOOATzUmoaha6Vp817qE629tAheSR+igdTR0uHWxYorGufGHhuxdEv9f0y0kkjWVY7m7SJyrDIO1iDyKv6fqdhq1t9o0u9t72DOPNtpVkXP1UkUBctUUUUAFFFFABRRRQAUUUUAFFFFABRTZJFiieSQ4RFLMcdAKg07ULXVtNt9Q0+XzrW5jEkUm0ruUjIOCAR+NAFmiiigAoqpZ6pZ6hc3lvaTeZLYyiG4XaRsfaGxyOeGB4z1q3QAUUUUAFFFQXt9aabZyXeo3UNpbR43zTyBEXJwMseByQKAJ6Khs7211C0jurC5hureUZjmgkDo49Qw4NOuLmC0h826mjgj3Ku+RwoySABk9ySAPc0ASUUVFDdW9y8yW88UrQP5cqxuGMb4B2tjocEHB9RQBLRVGPW9Km1aTS4dTs5NQiG6S0W4UzIODkpnI6jt3FF9relaXcW8Gp6nZ2c1ydsEdxcLG0pyBhQSC3JHT1FAF6igkAEngDqaybLxX4d1K4Nvp2vaXdzKpcxwXkbsFHU4BzgetAGtRWdpniHRdbeRdG1ew1BogDILS5SUoD0ztJx0rRoAKKKKACiiigAooooAKKKKACiiigAooooAKKKKACiiigAooooAKKKKACiiigAooooAKKKKACiiigAooooAKKKKACiiigAooooAKKKKACiiigAooooAKKKKACiiigAooooAKKKKACiiigAooooAKKKKACiiigAooooAKKKKACiiigAooooAKKKKACiiigAooooAKKKKACiiigAooooAKKKKACiiigAooooAKKKKACiiigAooooAKKKKACiiigAooooAKKKKACiiigAooooAKKKKACiiigAooooAKKKKACiiigAooooAKKKKACoH/5CMP/AFyk/mlT1A//ACEYf+uUn80oAnooooAKguP9fa/9dT/6A1T1Bcf6+1/66n/0BqAJ6KKKAEdBIjI4yrDBHqK4nxNFHB8Q/AUMCLHHHNdqiKMBQLYgACu3rlPEXhbWNY8UaTq9jrVpZrpLO8EEuntNuZ02NuYSrkY6AAY96FuHR+jKfj63S2m8NtZwxrLN4jt5GBO0O/luMkgHsB2qUeL7/Sl8SR69Db3EmjiGSF7ON0E6yj5FKkuQQwwSM57DtV/xX4b1HxBNpL2GqW9iNNvFvMS2Zn8yRQQo4kXC/McjqeORjmlL4Iur/VNfl1nVYbix1qFIWt4LQxPBsz5bLJ5jcjOT8vJweOlH2bev5L/IHrJPyX5v/MTQfFWrXvikadeWM89lNA0qXq6PdWSwOD/q384YbI6MCOmMVT8eTtfeNPCPhq4B/szUp55btP4ZxCm5Y29VJ5I74Fb2g6Fq2nsDrviGTWfJBFvutUh2jpltpO9scZ4HJ4zzU/iPw1beI7W3Waaa1urOYXFpeW5AkgkHcZBBBHBBGCKeia/r+rfoJX1/roWr/RtP1Ozitru1jeOF0kh+UfunQgqy+hBFYL67resXWrr4X+wLHpE5tmW8jdzdShAzKCrDywNwG4hsnPHHOpZWGughdX1m2uIlxj7JYm3d/wDeYyOOf9kL+FUD4UvbLW9RvvD+rrYRaowku4JbXzgJAu3zIzvXYxAGchhkZxSd/wCu+g1/XoYU+vReJ7j4e6zbxtCl3fSuY2OSjfZ5Qy574IIzS+Jta1bX/B3imfR/sKaZZxXVoyTxu0twUQiRlYMAmDkAFWzjtmtS78DzJ/wjkWg6jBYWugOXjintDO0pKFDuYSLjIZu3U59qSXwNcxwa5Y6ZrC22l60JnltpLXzGhllUhmjfeMKSclSD3wRmidmml52/C36jg7Si35fr/wAAwPEs72mt/De4hspr2VPNxBblBI/+jDgF2VffkjpV7wAh1rxRrfjCCNLC0vlS1+wA/vVkiJDPOvRZO2OeO9W9R8Eaxdal4furXxBaxDQUxAs2mmQysY9jFyJV4x0AAx6mrs3hC7tvF7674e1WPTvtagajZyWvnRXRHR8B1KPjIzznjPvbd5N+bM0nypdkjNn8Y61L4VuPF2lw2M2j25kf7G6P580MblWkEobapIUsF2HjHPpor4jvte1W5sfC0tnD9jtoZ5bi9haUOZVLIgVXUj5QCWJPUcGoI/Ac1vp97olrq3l+H72SR5LM22Zo1kOXjjl3AKhJPBQkZOD0xcuPCk9t4ibWfDl/Fp089ultcwzWvnwyomdh2h0KsASAc4x2qNP6/r+vQt76f1r/AJX/AK1MdfH2oXOj6PcW9hbxXdzrP9kXsErsRFIpYNtYdvkyCR0PSrkGs+KJ9W1vRh/ZK3dhHFcQ3Rik8to5A2FaPfnIKMCdw7HHamX/AICuXsdJttI1aG1/s/UDqUslzZmdrm4JYljtkQAEu3A9sEYq1H4Z1yHxNrGrxa5Zf8TGBIEhbTWIhCbthz5w3H52z0z7UP4Xbf8A4C/W/wCodf67v9LGn4U1pvEXhPTdXkhEL3cCyPGpyFbuAfTNY58QeIdUt7vUPDFrZXFtZ3r2os5gRLdbH2SMsm8LHg7sAq2dvUZxWp4P0G58M+F7TR7q+jvvsi7I5o7cw5TsCC7ZPXnI+lZkHgq8sNbvZdK8QT2mk6hO1zc6cLdGPmN98pKeUDdxg9TgiqdufTb+v+CJfCUvGXjHV/DZ1C5j/s+OCxjWWO0ljeae9TA3sCj/ALlQcruZWGRngVoah4g1lvGNvoekRWKrc6W94k10HJjYOi8hSMj5unH1GOa+qeAZ9Q/4SKCDWjb2evRjzIvsod4nCBBhy3KYUfLjPXDCsS/vDH8YNL06y8Q6fDqcOiyQObiISK7mWNhGYw6kEqNwG7OB37ytWl6/k/1sN7N/1uv+Calj4y1m78P3RuLfTrLU9P1E2GoXEsn+iwADPnAFlLKQVAXcDluvFN03x9dS6Re/aYIZ76DVk0qBo4pLeOdnClXKPlkADEkZOdvB5FXJ/Aj/AGS1ey1TytTh1I6nJdS24kSeZlKtujDD5dpwuGyuByT1jn+HYu7bWobvWJ2OpXkd/DLHCqSWs6KgVgehwUGBgcEg56015+X6Xt+Nv+GB+X9b2/T+t9W0ufE1vNqUWqwWM8cMAltL23QxJI2DmNoy7MCMD5s4Oa5i71zxBrOn+BL6wvbOxbVpFaeJrRpULm3eQf8ALRTtGOmQc4OeMHpbTQ9bi0m5S+8QJfanLEYorqSxCRxKepESsMk9yW6gdBxWda+B7628O+HbAa1GbrQJleC5FlhZEEbR7WQuedrHkN15x2oVr6+X63/QWttPP8tB9hr+s23i7WNK8R3OmxW9vaC7spIbV0MsWSGZiZCPkIwQB3ByOlbvh+XU59Ctptd+zi9lTe628TRqoPIG1mY5AxnnrXN6tFo/jLxFY2NtNNNd6JeH7bIiNHsTZ80TnaAwc7PlHBAJ7V21HT+vvDr/AF/X/DnIjxTqn2XxMwso5pdJvVt4VhR3JQpGxdlGS20SEkLgkLgc1q+GtRutTs5Zp7/TdRh3AQ3WnoURuPmDKXcqwPGM/wCFZVj4U12yk1uZPEVus+qXUd0jxacV8hl2DbgyncpRApHHUnPatLQtAm03UtQ1O/u4bi+1ARiY21sYIsICFIQsx3fNyxY5wOmKFa3yX6Df6so+LNf1XSbgrZS6faQrbNMkl1E1w91IM5iSKN1fgAEthuvTisa+1zXNbbwLfaTeW2nR6sTLJBNbNOA5tnfkh0JUcgDjnBzxit+/8LXNz4nn1a01U2yXdiLK5hNuJG2gsVaNifkOWOchgfTvVS38D3Nrovhu0g1kC50BwY5zagrInlNEV2buDtbrk89scURslr/W/wDwP+HB76dn+S/4P/DHRW39qf2rdC7+yGw2R/ZjFu80tg794PGM4xj3zXB+PbyV/ix4B0t+bR7ia5ZT0aRE+U/hk/nXeW1pfQ6rdz3GpNcWkqRiC1MKr5BAO47xy27g89McVneJvC66/Npt7b3Is9S0q48+0uGi8xQSMMrJlSysOMBgehzxS+1F9mG8Wu6OV+G13KPHnj3TV3G0g1JZohn5VeQNvA/FQa6PxB/xM/FGh6MOY0kbUrkY42Q4EYP1ldGH/XM1Y8M+GIfDq38xm+03+p3LXV5cBNgdz2VcnaoHQZJ65Jq3aaP9n8Rahq0s/myXccUMa7MeTGm47c55yzsc8dQO2aFpy+SX3pf5i35vNv8AF/5FjU9Ot9W02ewvhI1vOu2RYpniYj03IQwz3weRxXk/wVlOlfDHxPLZp81pqN00SHJ+7EhA/SvW75LuSzkXTp4be5ONkk8JlReecqGUnjP8Qrkfh94DvvA9re2U2s2+p2d3M9w6/YTE4kYKD83mMNuF6be/XtSs7SW11b8UXdaX7nl0V7PZfA/wVrFuznUB4h84yA/PKzSzBsnqdwGD6963FuG1bWfi/JqAybeyFvFu/gjWKXAGemSAfqa6+y+GEFqmn6dLfibQdLvjf2ViYMSJJksFeXdhkBZiAFB6ZJwc2dY8AG+1bV7vTNSFhHr1utvqkbW3mmRVG0NGdwCPtJGSHHQ445qbUua3W/yul/k0KLs030t8/eb/AFLPwyv7nU/hloN1fF2na0VWeQ5Z9uVDE98gA/jXEReI/wDhG/iH4xMkMltZXWo2sVzqqxh0sgYBgsOvJOAxG0E5Oeh9V0zTbbR9JttN09PKtrWJYYVJzhVGBn1rm9B8Halpmv63qGp6tY6jDrZVrm2GmmMAqmwAEyt8uOoIOfUU5SvOUl5/mn+hmotQin0/yaNy1trHQtBlk0i1V4Vje4CwfM1wxG4tn+JmPfvmuPtvFXiq7vPC8kNxov2PX9ztGlnLJJbKI9+N3nAN02ltq4OOD0p2keGNe8CaRqDr4h/tDSkSWWPTbfS28yDIJCwN5rEYJGAQw46Vk+E7d7S8in8PeK9C1a5by0uYYdGRLmVcjPmyI4ZSOfmdevUZoVub7v1Kei+89XoooqRhRRRQAUUUUAFFFFABRRRQAUUUUAFFFFABRRRQAUUUUAFFFFABRRRQAUUUUAFFFFABRRRQAUUUUAFFFFABRRRQAUUUUAFFFFABRRRQAUUUUAFFFFABRRRQAUUUUAFFFFABRRRQAUUUUAFFFFABRRRQAUUUUAFFFFABRRRQAUUUUAFFFFABRRRQAUUUUAFFFFABRRRQAUUUUAFFFFABRRRQAUUUUAFFFFABRRRQAUUUUAFFFFABRRRQAUUUUAFFFFABRRRQAUUUUAFFFFABRRRQAUUUUAFFFFABRRRQAUUUUAFFFFABUD/8hGH/AK5SfzSp6gf/AJCMP/XKT+aUAT0UUUAFQXH+vtf+up/9Aap6guP9fa/9dT/6A1AE9FFFABRUVzK8FrJLFbyXLopZYYioaQ+g3ELk+5A96xPDHjLTvFMl9b2sVzZ3unymK6srxFSaI9iQrEEHsQTRuB0FFY2m+IJNR1q805tF1G0+xnD3FwYfLbPK7dsjMcjnpx3weK2aACiikYkKSBk44HrQAtFZPhnXD4i0NdQNsbUmaaExF9+DHK0fUAddufxrWoAKKKKACiiufv8AxFejUrux0DS01SawEbXaNdiBhvyQqZUhmwM4YqORz6AHQUVjeIvEH9gW9hKbRpxeX0FmR5gXyzI4XceucZ6Vs0dL/wBf1qAUUUUAFFZFtrpuPF17obWjxm1tY7kTs4IkDsy4AHTGw1r0dLh1sFFFFABRRRQAUUUUAFFRwXEVyjPA4kVXZCR2ZSQR+BBFSUAFFFFABRWNq+uTWmpQ6VpVrFe6nNA9ykM05hQRoVUkuFYg5cADHPPTFaNhPPc2EE15aNZzugMluzq5jbuu5eD9RR0uBYooooAKKCcAkDPsO9ZPh3Xf7ftLqb7K1qba8mtCjuGJMbbSePUjpQHma1FFcpafETR7y8tljiuksby6aztNTdUFvcTD+Bfm38kMASoBI4J4ybuwdLnV0UUUAFFFFABRRRQAUUUUAFFFFABRRRQAUUUUAFFFFABRRRQAUUUUAFFFFABRRRQAUUUUAFFFFABRRRQAUUUUAFFFFABRRRQAUUUUAFFFFABRRRQAUUUUAFFFFABRRRQAUUUUAFFFFABRRRQAUUUUAFFFFABRRRQAUUUUAFFFFABRRRQAUUUUAFFFFABRRRQAUUUUAFFFFABRRRQAUUUUAFFFFABRRRQAUUUUAFFFFABRRRQAUUUUAFFFFABRRRQAUUUUAFFFFABRRRQAUUUUAFFFFABRRRQAUUUUAFFFFABRRRQAUUUUAFFFFABRRRQAUUUUAFQP/wAhGH/rlJ/NKnqB/wDkIw/9cpP5pQBPRRRQAVBcf6+1/wCup/8AQGqeoLj/AF9r/wBdT/6A1AE9FFFABXA33hq6u2k8QeHGSDX9PvLkRluEu4vMJaCT/ZPY/wAJ5rvWUOjKc4YYOCQfzHSszRfDun+HxONMF0BcP5kgnvZp8tkksPMdsE55I6980dbg9rHGTa5B4m8F+LNTsXvLKeC1LMkczwTWtxHESUYqQcqw6dD7g1M090Nb+HlwL693XsDR3KfapPLnAtWcFkztZt3O4jPvwK7ZdLsUe8ZbWMG+Obr5eJjt2/MO/wAoArMs/BXh+xNmbew+axJNs0k8khhyMYUsxIXBIC9Bk4App2v8v1v+YdPv/G1vuOJvX1GTwd4z1Ea3qaXOkajcvZsl0wEflqrBSBwy9trZHtnmt2RrrTfiL4dEeo3s0er2tz9qhmnLRkxqjKyp91DyR8oGR1rRHw88ODTb6wNveNa6hJ5t3G2p3J85u5JMmee/rgZzgVOPBOif2hp96Y71rjTV2WrtqVyfLHcYMmDnoc5yAAcgYojZWv5flZierfz/ADujgUtL2z+Ft34h0zWb+0vdNu72aCGOX9xIRdSfu3jxh93TnJBIwRWrqE/iHxRretafp3l282niJYcazNZvAzxK/mGOOJhINzEfOSPlxgck9bD4P0O3vmuobIqWl88w+fIYPMznzBDu8sNnndtznmk1jwZ4f1/Uob/VtNSe7hXYsodkYr12ttI3L/stke1Irq3/AFuctcLq2qeJfDmmX+t3UBvdFuTePpc5jSSRTEPMQkDHLEg4710ni7U7rwv8PtRv7Evc3NjZkxvN8zEgY3t64+8foann8JaPc+ILbW5IbgX9quyF0vJkWNePlEauEwcDIxg981sSxRzwvFMiyRyKVdHGQwPBBHcUPWPnr+bFHSV35fp/kcJfpc+HtU8M32kapf30eqXiWt3Dc3TzJOjxs3mqrEhCu3d8m0YzxTfCei2sPxP8XTJLfFrea2KB7+dlO6DJ3KXIfrxuB28YxgV0+l+FNH0aZJNPtXQxArCslxJKsAPURq7ERjthQKZpvhDR9J1q41axju0vLo5nd7+eQSnGBuVnKnA4GRx2xVXV/v8A0/yJs7f195l/Eb/kG6J/2HrD/wBHCoIN/izxR4ksLzUL+y/sqWKG1js7p4CgaIP5x2kb8kkANlcL0610OveGtL8SwwQ6xFNLHbyiWMRXUsO1x0b92y5I7Z6dqZe+FNH1C8S8uLeUXKRCEzw3UsTyIOiuyMDIPZs1C2a83+S/y/Et9Lf1q/8AM4rTNYv/ABDoPh6HU7u9mv5lufMtbCU2rXgifyxO0yMpjQcEgfeL8A4xUWl+ItWk8IeHbC8vZkm1HWptOnvBLukSON5cKJCASxCBN2Aep613l34W0a9ksHmslRtOBW1MDtD5SkAFPkIypAAKnIOOlQDwX4eXRptKGmR/YZpjM0O5sK5YtlTnKYJJG0jGTjFV/X4/5f1Ynpp/Wj/UxdB0xNK+KmrwQ3N1PE2k2zILq4edk/ey5AdyWIzzyT19MCp/GbXR8R+Fra21C7s4ry9lhnFvLs3r5Dtz+IH0+tblh4b0rTdQ+321u5vDAtubiaeSWRkBJALOxJ5J5PNRav4U0nXNStL/AFKO5e5sjm3aK9miEZ55Co4GeSM4yRx0paaJ/wBa3H3a6/5WOOubbWrzWL7wzpt3Ldf2VawiGe61ya0uCXUnzm8qJvN54+Y7fl6ck1csLzUtU1rS/DXiDUT5iaS11dTadO8P2uUS+X8si7XAGCx24yWHbr0et+D9B8RXlvd6xp6z3NuMRzK7xuB/dJUglf8AZOR7U/VfCmiaytn9v09XawObVonaJoeMYVkIIGAOM4OKE+/9b/18hPy/rb+vmcBqMl7b+EtZddX1NpdM8RRwW0v26UMIjJCuxiG+cYYj5s9SevNb+pXlzpXxI1CW2nupY/8AhH5Lv7I9w7xGVJAAVQkhSQMfKB+ppPC+hSXdj4i0rxF4bkstOv7554opZYWV4mVQB+6clWBTPtxg5ro7LwxpGn38d9bWh+1xweQJ5JXkcpnOCzElu3JyeBzxS15V6fnG356j6v1/9uv+RxuhR+J7q50LX47y0SyugpvGOsz3K3auvGyEwhI2DYPyEAYIPrV7RRLaazaWmv3GpLfXySKtyl9JLZ3/AMpbMYDfuWCgsFCr3wWxmt3SvBXh3Q9Tlv8AStMjtriUkkqzbVJ6lUJ2pnvtAp+l+ENF0e4hmsbebdACsCzXc0ywAjB8tXYhMjj5QOKu6f8AX9f10Frb+v6/rc43wlos0Xw6kGiXFwtzNqM6NHLqMy+ZGl3JlEYsfLZlB+ZQCTyTnmur8I3ED297bRNqSTW84EtpqcrSy2xKLhd5Zt6n7wIZvvHmpP8AhC9B+y3Fstm8cVxcfaXEdzKhWTdu3IQwKfNzhcDPNX9L0ey0eKRLCNwZW3yySzPLJI2MZZ3JZuAByTgDFK+9/wCtv6/pje/9ef8AX9I5PVLS71f4n3Oj/wBtapY2baKlxts7jyysnnkbhwccAfXp0JBxmm8VeIrW/wBT0i6tbS4sNQmiWeXWZ0SFIpSNklqsJQ5Rc5JJ+bII4A7pfCmkr4nPiER3P9plPLMv22baU/u7N+zb324xnnrzUc3gnw7ceIf7cl0uI6gSrNKGYByv3WZAdrEdiQSMCiOlv663/wCAD1b+X5W/4JzV9olre/GizaeW+VpdFlmYQ6jcRgMJohgbXGF9VGATyRmsi5mvE+E2vTLqmpi407V50tp/t83mqq3AQKX3ZYbTjDEj8a72fwfo9x4kXX5I7v8AtJAFWZdQuFAUEHZsD7dpIBK4we4NMuPBHh26e+NxpwcX7+bcxmaTy3fj5wm7arHHJABPfNKOiXz/ADuv8gev4flZmP4p+0W2oXWoX82pf2XDAu240y8dDYMAS7ywqw8xcEHPzED+EDmqusXOseI/E+qaVpLx7LO3heArrM1i6mRSfNxHE3mDPGGO35enNdNeeD9Fv7yS5ureZmlRUljS7mSKZVGArxq4RxjswNGs+DdA8QXVtc6tpqTT2o2xSo7Rsq/3SUIJX/ZOR7UdLBscxpl1qet+ILTw54i1Fw9ppC3NxJptxJALyYymMsHXY+1dmcDAJbuMVN4N0g3fhTWNNOp30LLrd0DdwTBJztnzy2O+MHjkE102oeGNI1OSzkubQpLYjbbS20rwPEuMbQ0ZU7ePu5x7VEfB2gtpd1px05Psl5cfap4w7DfLuD7s5z94A46U763/AK3uK2lvT8rF7WY7iXQb+Oyz9pe2kWLBwd5U4/WvAlSaT4AeB4LQf6W2vqsXGSr+dNj9cV9FVi23hDQ7TVv7Rt7HZOJGmRfNcxRyMMM6RFtiOe7KoJyeeTRF2d/T8GN6xt6/irG1RRRSAKKKKACiiigAooooAKKKKACiiigAooooAKKKKACiiigAooooAKKKKACiiigAooooAKKKKACiiigAooooAKKKKACiiigAooooAKKKKACiiigAooooAKKKKACiiigAooooAKKKKACiiigAooooAKKKKACiiigAooooAKKKKACiiigAooooAKKKKACiiigAooooAKKKKACiiigAooooAKKKKACiiigAooooAKKKKACiiigAooooAKKKKACiiigAooooAKKKKACiiigAooooAKKKKACiiigAooooAKKKKACiiigAooooAKKKKACiiigAooooAKgf/kIw/wDXKT+aVPUD/wDIRh/65SfzSgCeiiigAqC4/wBfa/8AXU/+gNU9QXH+vtf+up/9AagCeiiigAopshcROYwC+07Qe57Vwuo6v4003XvD+lz6hoTSaw0qO66XNiAxxFzj/SPmzjHb19qAO8ori9Z1TxJo50NL68s991rkVpI9rbFFmgZC33XZypypHWuqsdUsNUheXTL62vIo3KO9vMsiqw6qSCcH2p9L/wBdP8xdbf11/wAi1RVKw1nTNVeZNL1G0vWgbbKtvOshjPo20nB+tP1DVNP0m3Fxqt9bWMJYKJLmZY1JPQZYgZpDLVFYOr+NvD+iSact/qtnENRciF3nVU2gEly2cbeMZ9SBV6bX9Htr6GyuNWsYru4AMNvJcoskgPTapOTn2oA0KKw38Y6HH4sHh19StU1Dyw5ieZVbcThUAPViMnA5xj1FX01nS5NUbTI9StHv0G5rRZ1Mqj1KZz+lHS4dbF2ikJCqSxAAGST2qlYa3pWqiY6XqdneiA4l+z3CSeWf9rBOPxoAvUVwmleKR4w1++h0LxVa2p0+8EcNpD5M63kKqheQg/OQSzKGRgBjvW/rHjDRNB1ix03VNRtbW4vNxUTTKgRQCdxJ6ZICj1J46Gjt5gblFcho3igRa34ig8Q6rawwWmpR21mZ2SEYaFH2AnG45Y+prpNR1XT9Itxcatf2tjCW2iS5mWNSfTLEDNHRMC3RTY5EmiWSJ1eNwGV1OQwPQg1haX438Pavfaja2erWbSafIUkH2hckKqlnAz90Ftu7pkGgDfoqlDrOmXCzNb6jaSiBFklKTq3lowyrNg8AjkE9RRY6rYazZvPo2o2t7GMr5ttKsqqfqpxQ9ALtFec2/ivWpfhf4f1prtRe3l/bw3D+SuHR7jYQBjA+Xj1rutR1jTNIWM6tqNpYiVtsZuZ1j3n0G4jJptW++35f5gXKKz21/R01ZNLfVrFdQcApaG5QStkZGEzk8c9KmtNU0+/nuYLC+trma1fy7iOGZXaFuflYA/KeDwfSkBaorODufErKNWiMYtedNCLvDbv9buzuxg7cYxT7LW9K1K5lt9O1Ozu54SRLFBcI7RkcHcAcj8aAL1FQ2t5bX0PnWVxFcRbiu+Jw65BwRkdwQQarapr2kaIIzrWq2WnibPlm7uEi34xnG4jOMj86AL9Fc94p8baL4RsrafVLyFXu5Fjt4vMAMmSAW9kUHJboB7kA8j41+IOuaJ4r8N2Wg3WjXen+IZljgna2eTylLIu7cswEgO/PAXpj3ppNtJddA2Vz0+ivNfGPjHxV4a8ZeHdFtrjR5o9bk8rzZNPlzAQUUnAn+YEsSBxgcZPWu5vtb03Q7aBvEGrWFk0g2iS4mWBZGA52hm/TJxS6cwutjRoqjf65pOlRwvqmqWVklwcQtcXCRiQ/7O4jPUdKi/4SbQT9sxrenf6D/wAff+lx/wCj84+fn5eeOcc0DNOiq0epWMum/wBoxXlu9j5Zl+1LKpi2AZLb84x70WGpWOq2a3el3lve2zEhZraVZEJHBwykigCzRRRQAUUUUAFFFFABRRRQAUUUUAFFFFABRRRQAUUUUAFFFFABRRRQAUUUUAFFFFABRRRQAUUUUAFFFFABRRRQAUUUUAFFFFABRRRQAUUUUAFFFFABRRRQAUUUUAFFFFABRRRQAUUUUAFFFFABRRRQAUUUUAFFFFABRRRQAUUUUAFFFFABRRRQAUUUUAFFFFABRRRQAUUUUAFFFFABRRRQAUUUUAFFFFABRRRQAUUUUAFFFFABRRRQAUUUUAFFFFABRRRQAUUUUAFFFFABRRRQAUUUUAFFFFABRRRQAUUUUAFFFFABRRRQAUUUUAFFFFABRRRQAVA//IRh/wCuUn80qeoH/wCQjD/1yk/mlAE9FFFABUFx/r7X/rqf/QGqeoLj/X2v/XU/+gNQBPRRRQAV51448QaPp/xN8GJfanaW7W01y84lmVfKVoCqlsn5QScDPWvRaKFvcOjOC+J+paXaTeFYtUu7WFW1uGVlnkUAxqrhmOf4RuGT05FYmpX1re6x8QNP8OXMU989rbMba0dDJJsBEoUHILBflIweSAa9Yoo+zb1/T/IOqfp+bf6nnnhIaNrnii31vStf1bVrq2tntpluIIoEgQ8+XIEgTLBgMLnjk9Ouv4wu9PsdU0u5uNbt9Fv40n+yz3qqbdx8gdHyV6/LjDKeDz1B6yim9QWh5vdarGdP8Eane2iaXbx6rIrhc+UmYp0VlJAwjkgrkDhhWH4z1G2u9L8YQQMunSw3UMs1qIme4udvl4nYtnZHgADaBjbncCcV7JRRfW/9dP8AIVv6+/8AzOJbUII/iqx87Y1/oUa2hKn98wmcnbxzgMpPoDnpXJ+GILHVo9E0vU9b1z/hINHuI5ZNKa3hjMMy/fcuINxjILEsXO4HqWIr2KihO39ebf6g9f68kv0OW+JEV9N4Guxp0ElyVkiee3iGWmgWRTKgHfKAjHcZFZUlzpviDx74d1bwtcwTraQzrqFxbkFUgKDbFIR0bfghTyMMccV31FJaf1/X9XG9f6/r+rdjgPhvruk6jrPiyGw1K0uZZNYluI0imVmeLy4l3gA8rkY3DitDxVdwaf438J3N4/lQb7qLzCCRvaL5V47nBwO/auvoo6Jdkl9ysD1bPHbrWPD1xp/xRaW/092csqFpULN/oyIAO5/eDHH8Q9as3mtWsWp6Rqd/4gvNO0a80aKC21CzihnhMoY+ZG7PFJtJ+X0ztIPTj1mihaL7vwTX6h/wfxaf6GD4K0u20bwpbWWnyXklohdoGvcCQozFhwFXaOeBgYGK5CbVdN0/T/iLa6pcw28jXMsmyc7cq9rEqHnszDA9TwK9NopS1v5q35f5Di7W9bnlDJYD4d+E9Z0m1trmxhms21d7SIOzxIpzv2jLBJCGIOcYJ9a27a50+7+I0niPRr22bSU0h01K9ikBgdw4MeXHyllUPk54GM4yK7yiqk+Zt+v4qxCVkl6L7nc8RtNf0iP4H+Gt+p2imHVbZZAZlyhW5DsCM8YX5j7c1veIb6zh8Z6guva7f6Xp2rWkKWM9tbwzQXUe07o9zwyc5JIAIyGr1Cihu9797/ekv0K13/re551qGjf8Ir4d0PxDpMN3cSaBF5UqT4a4uLFuGVsAfMo2uBgY247muy0C0kt9OM93HsvL1zc3A7qzYwvvtUKv/Aahv9GvdQ1pJZtWYaSETfpq26/PIrbgxk+9jple+OvJB2aL9f6/rqK1rL+v66HA3Or6MvxjurWS8gNx/YJjliSQeYSJC+zGfvbMtjrjnpR4Q1W0bWbDTdKvrPXbKOxZYbuBQLixQbMRThfl+bAxwhyp4PJrvqKUdFb+ur/X+rg1d3/rZL9DM8P3WkXmled4eSJLPzpVxFAYh5gch/lIHO4HJxz1ryL4mahA/i/xNpmnm4j1GfQMTLc5eO4RfmCQRAAlxknfuIUK/wAp5I9wopNX/rysUnb+vO54Dr88Unwj+G9+sqSW1nf2ouZ1YFYdowdx7YII56VP8Y9W0fUPiH4HC6nAYYbkNcvFdeW0EbPEQxZSDHleQ2RxyD3r3eir5vf5vO/4EJWjbyt+J4H49n8Pad8VPBD6frXnxQXIlupLnV5LoQKWjZWLSSNsBXntkYPpXSapfW2l/Ge81fxHdxR6Nd6AY9OuZ5ALd8lS6Kx4LHk4HJB9xXrFFT9nl9fxVivtX9Pwdz5q1+G70z9nXw5a+IP3Ej6uJYbafh1g/eH7p5I5z9GFdBNf+HY/jxqFwLrS1s4fD5W3k8yMRxuEGAh6AhM9O2e1e60U5Pmv8/xVv+CC0t/XW5812z3d5+zHaLpb+elhqhk1GGP5ykIdm+ZAeVyVYg445r1z4f2scmp61rdr4gtdZg1ZoZW+w2xighkVNpAzI53FQu4HkcZruKKfNv8A12/yJ5dv66t/qFFFFSUFFFFABRRRQAUUUUAFFFFABRRRQAUUUUAFFFFABRRRQAUUUUAFFFFABRRRQAUUUUAFFFFABRRRQAUUUUAFFFFABRRRQAUUUUAFFFFABRRRQAUUUUAFFFFABRRRQAUUUUAFFFFABRRRQAUUUUAFFFFABRRRQAUUUUAFFFFABRRRQAUUUUAFFFFABRRRQAUUUUAFFFFABRRRQAUUUUAFFFFABRRRQAUUUUAFFFFABRRRQAUUUUAFFFFABRRRQAUUUUAFFFFABRRRQAUUUUAFFFFABRRRQAUUUUAFFFFABRRRQAUUUUAFFFFABRRRQAUUUUAFQP8A8hGH/rlJ/NKnqB/+QjD/ANcpP5pQBPRRRQAVBcf6+1/66n/0BqnqC4/19r/11P8A6A1AE9FFFABRTZFLxOqsVLKQGHb3rzjXNATTfGHhHTINV11oL6S4S73a3d5m2QFlJ/ecfMM/Lj8qFuB6TRXnvi3S49CHhoJc31zH/wAJHC6/aLiW4dFMbZQFiWYZXIBz1rpbHxdY3S6r9qgutOl0kj7VFdINwVl3Kw2FgwYdMHOeMZp9L/10/wAxbO39bv8AyN2isSx8UwXWvf2Pd2N5pt60JngS7VMTxg4LIUZhxkZBwwz0qTWvElpod5p9tdQ3UsmoSNFCIIt/zKhbB/BTSGa9Fc3YeOtJu7TVJrtLrTJNJIF5bXsW2WIH7pwpYMG7bSc1NZ+LLefWodKv7C+0u7uUaS1W8RMXCr97aUZhkDkq2Gx2oA3qKxNL8Tx6tcQiDTb6O1uVL217IsflTqBnIw5YZ7BlUmuevfE1pofhDXdU8MaRcvLHqUkVyruoxcFlV5Pnf7uSOB1PYDmjqD0O8orm5tQ0648S6ANU0q8ttVmS4azErKfIwo8wMUcqSRjH3uvbmm33jqwsEnuWs76bTLWUw3OpQxq0ELA4bI3byFPBZVIGDzwaAOmorDuvFVtBrDaZb2d7e3f2MXka20alZULbRtZmC5+pA9+Rm5oWt2viHRYNTsBIsM24bJV2ujKxVlYeoYEH6UeYGhRWBqXi23sLi7jt9Pv9SFiAbx7JEYW2V3YIZgWO3nagYgEccisHxr4nM+l+HW0ezuNT07WL+BWkt2iCzxHLeV87qcttHBAXGQSOlG9reX4htf5/gd7RWPpWm2egaJK2jaPJaCTNwdOjdQVcgZRRv8tTxjCkLnJ964TVfENz4l+Hej6vf6bc2LNq9lIhZ0ZZFNwPuBGJIA4+YAn0p21t6fjoHS/r+B6nRWFZ+LLK4vdTtbuC506XTYlnmF4qqDCd2JAVY/L8rdcEY5ApLbxbbTa5b6Vd2N9p815G0lm90iBbpVALbdrEggEHa4U47UgN6iud8Z+Irzw5p9nNY6bNfPc30Fs3lvGNgeRV/jYZJzgdsnkgVFe+Obewv2sJdG1eW+WzW8a1t7dZXCM23HysQSDnOCRxwTxkWu39dQen9fI6eiub1DxvZWC3U4sb+6sLFyl5fW8StFbsMbgQWDttzyUVsc56GqOozRXHxQ8LXFtJ5kU9heOrK2VcYiKkduh/Wha/15XA7KiuI8L3kGmaj40uLqRlhi1gerHmGLAA6kknAA7mtGTxvDDNe2txo2qRX9pbfa1sSkRluId2C8eJCrY7gsG9ulHRPyv+Fx21t52/Gx01Fc5B4yiuvDOma3a6TqM0WpSIkMCeSZQH+6xHmYx3OCSB1AwcaHiWaxt/C+pS6vDJPYLbSG5jizuaPadwGCO2e4oleKd+go6tI06KwW1620+206003Tb29ea1E0Vtb7N0cICjcxkdRxuUYBJPoatjW0ZtKCWN866kpZXWDK242bv3pz8menfnim1qJO6NOisPxrcTWngPXbi1lkhmisJnjkjYqyMEJBBHIPvXnNzr17pfw98D2NtqF/8Aa/E9zbR3d3LdySyhHC+Zsd2JQnIxtxjJIweaEru3ovvG9Ff1/A9iorgfCGs3Ft8SfEvhCW5muLWxSG5szczPNKiuql1LuSzDLAjJJGSM4xhPGWt3E/xG8MeEIbi4trXUBNcXj20rRSOqISiCRSGUFlOcEHoOmaFra3X+v0YbXv0O/oryXTtau9V8F+ONMvL+8+0+Gbi6W0uYryWObYqOYt7qwZyCCPmJzgZyea7vwHcz3nw+0G5u5pJ55bCF5JZXLM7FBkknkn3otpf0/EHp+P4G/RRRSAKKKKACiiigAooooAKKKKACiiigAooooAKKKKACiiigAooooAKKKKACiiigAooooAKKKKACiiigAooooAKKKKACiiigAooooAKKKKACiiigAooooAKKKKACiiigAooooAKKKKACiiigAooooAKKKKACiiigAooooAKKKKACiiigAooooAKKKKACiiigAooooAKKKKACiiigAooooAKKKKACiiigAooooAKKKKACiiigAooooAKKKKACiiigAooooAKKKKACiiigAooooAKKKKACiiigAooooAKKKKACiiigAooooAKKKKACiiigAooooAKgf/kIw/8AXKT+aVPUD/8AIRh/65SfzSgCeiiigAqC4/19r/11P/oDVPUFx/r7X/rqf/QGoAnooooAK4fxbBrU3jrw3fab4fu7+00qSaSeaKe3Td5kRQBQ8ikkE85x7ZruKKOtwOQ8d22q3dx4eOk6Pcagtnqkd7cGKWFNiIrDH7x1yx3cY44OSOKydR0DWdf1TxdayaRJZW2p28CWd3cyQyRSPDnh0VywViR26Zzg8V6LRR0sHW/9d/1OK8I6I0V6l3c+B9I8NTwKVaa1WB3mJGPkKLlU78kHoMdaPHc01v4k8Hy21q13IupSkQo6qz/6PJkAsQM49SB7iu1rH1bwrpWualaX+ox3TXNmc27RX00IjPPIVHAyQSCcZI46U76oVrJnJ6t4N1TxNHr+pNH/AGXfX0dqllbzyKxT7O/mKZShZfmY4wC2AB9K1jY6p4k13Q77U9Jk0ldIkkncSzRyGWRoygVNjN8nzEkttPA46466il0sPc4fQ7DWItcs7m20S50KHDtqdsbqKS1nYqceSiu21t+CThMjOcms1dH8Q6h4L8VWUuhTWV3eag95aRz3MJ85S6sFyjsFb5Oc4HI5POPSqKd/8vxv+gNJ7+v9fecbqf8Abd3408NXqeHbr7LaiY3UouYP3PmrtAwXBYjGWwCPQtWba6Br2neE9W8HLpv2qC6a5S01Pzo/KSOZmb96pYPuXefuqwOByK9EopaPQFdbHD2lhqmjeOIGttCvbrTLPRVsEulngBkdDuHytIG5xtyQPm9uav8Aw9tdTsfDLWus6ZLp1wt3cSBJJY5NyyStICCjN0D4Occiupop3fX+tbislt/VlY4uysdb8Na9rotNKfVbHV7n7ZBLHPGhgkZFVllDsDtyoIK7jjtWTe+GdX0Pw34P0fStJuNW/si+ivLqaCaFF+XfuVRI6knL8dsDkivSqKS0t5W/DYb1v53/AB3GRs0kCs0bRMyglHIypI6HBIyPYkV5g+jeJoPhzouiDw7NNdaffwNJ5V3Bhkhm3lxuccMAMDrnOQMZPqVFGzv6fgHSx5/qmi6t4g8TeIIJdIubKw1TRVsI76SWBgsgMhyUWQtj94B06g9uak8JeH5Yb63kv/AuiaFc2ed9/aLCxnOCuYtq7kBzk7sEDjBzkd5RTWn9ev8AmD13/rRL9DnfG+nX2o6Hb/2Xbfap7XULW78gSKhkWOVXYAsQM4B6kVm2sOtP8V21SfQbmHT5NLWzNz9ogZVcSGTO0Pu284+7nPbHNdpRQnb8fxVgeqt/WjucDZ6Rr2i6brnh+HS/t9tqE9zLZ3wnjWOMTkkrMGYP8rMeVVsj0pV0LUtF8U+EYbDSrq+07R9PezmvVlhUDeEUNtZwxxsycDoeM9K72iktP67Jr9Qev9dzzN/DOtazZ+L7G40c2f8AaGoJfWUl68MsM3liLEbqjsQGMfOR0PrxW34Q0bybr7bN4J0rwxNGhjY2oheSYnGcNGownHc5PHAxz2NVtR0+11bTbjT9Qi861uYzHLHuI3KRgjIwR+FCulZf1pYN3qcp4Z0Gew8V6lAsySaLYTmWxgA5hmmUNIv0UElcdpSO1bPjOG8uvBerWmmWUl9dXVrJbxwxuiHLqVyS7KABnJ5z6A1o6bptnpGnx2WnQLBbxDCoCT+JJ5J9zyatUSSa5RxbT5upw93aX11pOkJe+Fb+SWGzC+bZ3sMV1ZyjCkB/NUFSBnhj0GQeg3NNk8QWdjotrqNql9PIhXUbxZ1QQELkHbgb8njgD16VuUU27tslKysc/wCPf+Sd+If+wbP/AOizXFr4WufEHwt8C3+mRrLfaKLS+jhZgvnqqgtGCeATgYJwMjkjrXpl/Y22qadcWF9H5ttcxtFKm4ruVhgjI5HB7VX0TQ7Hw9pq2GlLNHap9yOW5km2DAAVTIzFVwOg49qI6X+T+65T1SXr+NjjLHQdesdX8W+MrXT0TVtSgSPT9Ou5UJQRoB+8ZWKjcQDgNjAGSM8UorLWvEk3g/x82lq+pWCzRXlhbSoPOjfcgeJmfYR1YZfBVuCeM+mTwQ3Vu8FzEk0MilXjkUMrD0IPUVJQna3l/wAH87iet/P+vwPNLXwtc+H/AIe+Ob/UgI7zWlvL14dwYwI0bbY2YcFhk5xkZPBPU9P8O/8Akmnh3/sHQf8AoArV1nRbLxBpr2GqLM9tJ99IbmSHeMEFWMbKSpBOQeD6VNp2n2uk6Zbafp8XlWtrGsUMe4ttUDAGSST+NCejXp+Fwetvn+NizRRRSAKKKKACiiigAooooAKKKKACiiigAooooAKKKKACiiigAooooAKKKKACiiigAooooAKKKKACiiigAooooAKKKKACiiigAooooAKKKKACiiigAooooAKKKKACiiigAooooAKKKKACiiigAooooAKKKKACiiigAooooAKKKKACiiigAooooAKKKKACiiigAooooAKKKKACiiigAooooAKKKKACiiigAooooAKKKKACiiigAooooAKKKKACiiigAooooAKKKKACiiigAooooAKKKKACiiigAooooAKKKKACiiigAooooAKKKKACiiigAooooAKgf/kIw/8AXKT+aVPUD/8AIRh/65SfzSgCeiiigAqC4/19r/11P/oDVPUFzxLbMegl5/FWH8zQBPRRRQAUUUUAFFFFABRRRQAUUUUAFFFFABRRRQAUUUUAFFFFABRRRQAUUUUAFFFFABRRRQAUUUUAFFFFABRRRQAUUUUAFFFFABRRRQAUUUUAFFFFABRRRQAUUUUAFFFFABRRRQAUUUUAFFFFABRRRQAUUUUAFFFFABRRRQAUUUUAFFFFABRRRQAUUUUAFFFFABRRRQAUUUUAFFFFABRRRQAUUUUAFFFFABRRRQAUUUUAFFFFABRRRQAUUUUAFFFFABRRRQAUUUUAFFFFABRRRQAUUUUAFFFFABRRRQAUUUUAFFFFABRRRQAUUUUAFFFFABRRRQAUUUUAFFFFABRRRQAUUUUAFFFFABRRRQAUUUUAFFFFABRRRQAUUUUAFFFFABRRRQAUUUUAFFFFABRRRQAUUUUAFFFFABRRRQAUUUUAFQP/AMhGH/rlJ/NKnqBudRjx/DE2fxK4/kaAJ6KKKACmSxiaJkbgHuOx7Gn0UAVluTENt4NhH/LQD5W989voad9utP8An6h/7+Cp6KAIPt1p/wA/UP8A38FH260/5+of+/gqeigCD7daf8/UP/fwUfbrT/n6h/7+Cp6KAIPt1p/z9Q/9/BR9utP+fqH/AL+Cp6KAIPt1p/z9Q/8AfwUfbrT/AJ+of+/gqeigCD7daf8AP1D/AN/BR9utP+fqH/v4KnooAg+3Wn/P1D/38FH260/5+of+/gqeigCD7daf8/UP/fwUfbrT/n6h/wC/gqeigCD7daf8/UP/AH8FH260/wCfqH/v4KnooAg+3Wn/AD9Q/wDfwUfbrT/n6h/7+Cp6KAIPt1p/z9Q/9/BR9utP+fqH/v4KnooAg+3Wn/P1D/38FH260/5+of8Av4KnooAg+3Wn/P1D/wB/BR9utP8An6h/7+Cp6KAIPt1p/wA/UP8A38FH260/5+of+/gqeigCD7daf8/UP/fwUfbrT/n6h/7+Cp6KAIPt1p/z9Q/9/BR9utP+fqH/AL+Cp6KAIPt1p/z9Q/8AfwUfbrT/AJ+of+/gqeigCD7daf8AP1D/AN/BR9utP+fqH/v4KnooAg+3Wn/P1D/38FH260/5+of+/gqeigCD7daf8/UP/fwUfbrT/n6h/wC/gqeigCD7daf8/UP/AH8FH260/wCfqH/v4KnooAg+3Wn/AD9Q/wDfwUfbrT/n6h/7+Cp6KAIPt1p/z9Q/9/BR9utP+fqH/v4KnooAg+3Wn/P1D/38FH260/5+of8Av4KnooAg+3Wn/P1D/wB/BR9utP8An6h/7+Cp6KAIPt1p/wA/UP8A38FH260/5+of+/gqeigCD7daf8/UP/fwUfbrT/n6h/7+Cp6KAIPt1p/z9Q/9/BR9utP+fqH/AL+Cp6KAIPt1p/z9Q/8AfwUfbrT/AJ+of+/gqeigCD7daf8AP1D/AN/BR9utP+fqH/v4KnooAg+3Wn/P1D/38FH260/5+of+/gqeigCD7daf8/UP/fwUfbrT/n6h/wC/gqeigCD7daf8/UP/AH8FH260/wCfqH/v4KnooAg+3Wn/AD9Q/wDfwUfbrT/n6h/7+Cp6KAIPt1p/z9Q/9/BR9utP+fqH/v4KnooAg+3Wn/P1D/38FH260/5+of8Av4KnooAg+3Wn/P1D/wB/BR9utP8An6h/7+Cp6KAIPt1p/wA/UP8A38FH260/5+of+/gqeigCD7daf8/UP/fwUfbrT/n6h/7+Cp6KAIPt1p/z9Q/9/BR9utP+fqH/AL+Cp6KAIPt1p/z9Q/8AfwUfbrT/AJ+of+/gqeigCD7daf8AP1D/AN/BR9utP+fqH/v4KnooAg+3Wn/P1D/38FH260/5+of+/gqeigCD7daf8/UP/fwUfbrT/n6h/wC/gqeigCD7daf8/UP/AH8FH260/wCfqH/v4KnooAg+3Wn/AD9Q/wDfwUfbrT/n6h/7+Cp6KAIPt1p/z9Q/9/BR9utP+fqH/v4KnooAg+3Wn/P1D/38FH260/5+of8Av4KnooAg+3Wn/P1D/wB/BR9utP8An6h/7+Cp6KAIPt1p/wA/UP8A38FH260/5+of+/gqeigCD7daf8/UP/fwUfbrT/n6h/7+Cp6KAIPt1p/z9Q/9/BR9utP+fqH/AL+Cp6KAIPt1p/z9Q/8AfwUfbrT/AJ+of+/gqeigCD7daf8AP1D/AN/BR9utP+fqH/v4KnooAg+3Wn/P1D/38FH260/5+of+/gqeigCD7daf8/UP/fwUfbrT/n6h/wC/gqeigCD7daf8/UP/AH8FH260/wCfqH/v4KnooAg+3Wn/AD9Q/wDfwUfbrT/n6h/7+Cp6KAIPt1p/z9Q/9/BR9utP+fqH/v4KnooAg+3Wn/P1D/38FH260/5+of8Av4KnooAg+3Wn/P1D/wB/BR9utP8An6h/7+Cp6KAIPt1p/wA/UP8A38FH260/5+of+/gqeigCD7daf8/UP/fwUfbrT/n6h/7+Cp6KAIPt1p/z9Q/9/BR9utP+fqH/AL+Cp6KAIPt1p/z9Q/8AfwUfbrT/AJ+of+/gqeigCD7daf8AP1D/AN/BR9utP+fqH/v4KnooAg+3Wn/P1D/38FH260/5+of+/gqeigCD7daf8/UP/fwUfbrT/n6h/wC/gqeigCD7daf8/UP/AH8FH260/wCfqH/v4KnooAg+3Wn/AD9Q/wDfwUfbrT/n6h/7+Cp6KAIPt1p/z9Q/9/BR9utP+fqH/v4KnooAg+3Wn/P1D/38FH260/5+of8Av4KnooAg+3Wn/P1D/wB/BR9utP8An6h/7+Cp6KAIPt1p/wA/UP8A38FH260/5+of+/gqeigCD7daf8/UP/fwUfbrT/n6h/7+Cp6KAIPt1p/z9Q/9/BR9utP+fqH/AL+Cp6KAIPt1p/z9Q/8AfwUfbrT/AJ+of+/gqeigCD7daf8AP1D/AN/BR9utP+fqH/v4KnooAg+3Wn/P1D/38FH260/5+of+/gqeigCD7daf8/UP/fwUfbrT/n6h/wC/gqeigCub2JuID57dhHz+vQU6CJk3SSkGWT72OgHYCpqKACiiigAooooAKKKKACiiigAooooAKKKKACiiigAooooAKKKKACiiigAooooAKKKKACiiigAooooAKKKKACiiigAooooAKKKKACiiigAooooAKKKKACiiigAooooAKKKKACiiigAooooAKKKKACiiigAooooAKKKKACiiigAooooAKKKKACiiigAooooAKKKKACiiigAooooAKKKKACiiigAooooAKKKKACiiigAooooAKKKKACiiigAooooAKKKKACiiigAooooAKKKKACiiigAooooAKKKKACiiigAooooAKKKKACiiigAooooAKKKKACiiigAooooAKKKKACiiigAooooAKKKKACiiigAooooAKKKKACiiigAooooAKKKKACiiigAooooAKKKKACiiigAooooAKKKKACiiigAooooAKKKKACiiigAooooAKKKKACiiigAooooAKKKKACiiigAooooAKKKKACiiigAooooAKKKKACiiigAooooAKKKKACiiigAooooAKKKKACiiigAooooAKKKKACiiigAooooAKKKKACiiigAooooAKKKKACiiigAooooAKKKKACiiigAooooAKKKKACiiigAooooAKKKKACiiigAooooAKKKKACiiigAooooAKKKKACiiigAooooAKKKKACiiigAooooAKKKKACiiigAooooAKKKKACiiigAooooAKKKKACiiigAooooAKKKKACiiigAooooAKKKKACiiigAooooAKKKKACiiigAooooAKKKKACiiigAooooAKKKKACiiigAooooAKKKKACiiigAooooAKKKKACiiigAooooAKKKKACiiigAooooAKKKKACiiigAooooAKKKKACiiigAooooAKKKKACiiigAooooAKKKKACiiigAooooAKKKKACiiigAooooAKKKKACiiigAooooAKKKKACiiigAooooAKKKKACiiigAooooAKKKKACiiigAooooAKKKKACiiigAooooAKKKKACiiigAooooAKKKKACiiigAooooAKKKKACiiigAooooAKKKKACiiigAooooAKKKKACiiigAooooAKKKKACiiigAooooAKKKKACiiigAooooAKKKKACiiigAooooAKKKKACiiigAooooAKKKKACiiigAooooAKKKKACiiigAooooAKKKKACiiigAooooAKKKKACiiigAooooAKKKKACiiigAooooAKKKKACiiigAooooAKKKKACiiigAooooAKKKKACiiigAooooAKKKKACiiigAooooAKKKKACiiigAooooAKKKKACiiigAooooAKKKKACiiigAooooAKKKKACiiigAooooAKKKKACiiigAooooAKKKKACiiigAooooAKKKKACiiigAooooAKKKKACiiigAooooAKKKKACiiigAooooAKKKKACiiigAooooAKKKKACiiigAooooAKKKKACiiigAooooAKKKKACiiigAooooAKKKKACiiigAooooAKKKKACiiigAooooAKKKKACiiigAooooAKKKKACiiigAooooAKKKKACiiigAooooAKKKKACiiigAooooAKKKKACiiigAooooAKKKKACiiigAooooAKKKKACiiigAooooAKKKKACiiigAooooAKKKKACiiigAooooAKKKKACiiigAooooAKKKKACiiigAooooAKKKKACiiigAooooAKKKKACiiigAooooAKKKKACiiigAooooAKKKKACiiigAooooAKKKKACiiigAooooAKKKKACiiigAooooAKKKKACiiigAooooAKKKKACiiigAooooAKKKKACiiigAooooAKKKKACiiigAooooAKKKKACiiigAooooAKKKKACiiigAooooAKKKKACiiigAooooAKKKKACiiigAooooAKKKKACiiigAooooAKKKKACiiigAooooAKKKKACiiigAooooAKKKKACiiigAooooAKKKKACiiigAooooAKKKKACiiigAooooAKKKKACiiigAooooAKKKKACiiigAooooAKKKKACiiigAooooAKKKKACiiigAooooAKKKKACiiigAooooAKKKKACiiigAooooAKKKKACiiigAooooAKKKKACiiigAooooAKKKKACiiigAooooAKKKKACiiigAooooAKKKKACiiigAooooAKKKKACiiigAooooAKKKKACiiigAooooAKKKKACiiigAooooAKKKKACiiigAooooAKKKKACiiigAooooAKKKKACiiigAooooAKKKKACiiigAooooAKKKKACiiigAooooAKKKKACiiigAooooAKKKKACiiigAooooAKKKKACiiigAooooAKKKKACiiigAooooAKKKKACiiigAooooAKKKKACiiigAooooAKKKKACiiigAooooAKKKKACiiigAooooAKKKKACiiigAooooAKKKKACiiigAooooAKKKKACiiigAooooAKKKKACiiigAooooAKKKKACiiigAooooAKKKKACiiigAooooAKKKKACiiigAooooAKKKKACiiigAooooAKKKKACiiigAooooAKKKKACiiigAooooAKKKKACiiigAooooAKKKKACiiigAooooAKKKKACiiigAooooAKKKKACiiigAooooAKKKKACiiigAooooAKKKKACiiigAooooAKKKKACiiigAooooAKKKKACiiigAooooAKKKKACiiigAooooAKKKKACiiigAooooAKKKKACiiigAooooAKKKKACiiigAooooAKKKKACiiigAooooAKKKKACiiigAooooAKKKKACiiigAooooAKKKKACiiigAooooAKKKKACiiigAooooAKKKKACiiigAooooAKKKKACiiigAooooAKKKKACiiigAooooAKKKKACiiigAooooAKKKKACiiigAooooAKKKKACiiigAooooAKKKKACiiigAooooAKKKKACiiigAooooAKKKKACiiigAooooAKKKKACiiigAooooAKKKKACiiigAooooAKKKKACiiigAooooAKKKKACiiigAooooAKKKKACiiigAooooAKKKKACiiigAooooAKKKKACiiigAooooAKKKKACiiigAooooAKKKKACiiigAooooAKKKKACiiigAooooAKKKKACiiigAooooAKKKKACiiigAooooAKKKKACiiigAooooAKKKKACiiigAooooAKKKKACiiigAooooAKKKKACiiigAooooAKKKKACiiigAooooAKKKKACiiigAooooAKKKKACiiigAooooAKKKKACiiigAooooAKKKKACiiigAooooAKKKKACiiigAooooAKKKKACiiigAooooAKKKKACiiigAooooAKKKKACiiigAooooAKKKKACiiigAooooAKKKKACiiigAooooAKKKKACiiigAooooAKKKKACiiigAooooAKKKKACiiigAooooAKKKKACiiigAooooA/9k=;" parent="1" vertex="1">
          <mxGeometry x="-93.14" y="1630" width="199.3" height="60" as="geometry" />
        </mxCell>
        <mxCell id="oAUWkIzRKvWxXRnF3NiV-1" value="Port 8089" style="text;html=1;strokeColor=none;fillColor=none;align=center;verticalAlign=middle;whiteSpace=wrap;rounded=0;" vertex="1" parent="1">
          <mxGeometry x="-93.14" y="1560" width="60" height="30" as="geometry" />
        </mxCell>
        <mxCell id="oAUWkIzRKvWxXRnF3NiV-2" value="CRinfo&lt;br&gt;TTstate/position&lt;br&gt;loadrefused" style="text;html=1;strokeColor=none;fillColor=none;align=center;verticalAlign=middle;whiteSpace=wrap;rounded=0;" vertex="1" parent="1">
          <mxGeometry x="634.92" y="1740" width="60" height="30" as="geometry" />
        </mxCell>
        <mxCell id="oAUWkIzRKvWxXRnF3NiV-3" value="" style="shape=image;verticalLabelPosition=bottom;labelBackgroundColor=default;verticalAlign=top;aspect=fixed;imageAspect=0;image=data:image/png,iVBORw0KGgoAAAANSUhEUgAAAJ4AAACNCAYAAABGx8NOAAAAAXNSR0ICQMB9xQAAAAlwSFlzAAAXEgAAFxIBZ5/SUgAAABl0RVh0U29mdHdhcmUATWljcm9zb2Z0IE9mZmljZX/tNXEAABqnSURBVHja7Z13eJRV2sbzgYQOhhZaJCIQjPRQhNCEAAECBEIMIZmUyZT0MqGDCkgLTQFFkC5IR9rSi4soIqigcom6LCCK4mIDXXFll/Od5+U+4WWYSSZkanL+uC8vSSbJzPm9TzvPeY7XlClTvKSknC35IUhJ8ErVB+/l9X8kCZ6UU0AjpWq1jXMNhhSTPnlHrjH55dIIoYTCCaBxlcnVGtrlGo1TTIbksxw2phb/+iP0PaUJPgmJA2HL0RmG5RiMS00Gw2U1aGN1eraqX6gavApc5UoTfBIYO8JmiDTUyNHptNlG40aTMfmWGrbJmji2secz7DP/x9ntsmUZp00NXnWuiqXJ8kl4igdbmUytNpBbNlOO3njS3IXmRY1gezp1Yldr1lJAM5cKvLpc1bjKc5WV4ElZdKGZBkMXky55Qa7B+IU5bMsGDGTHWrZiP1WtahE2K+A15qqlsnoSPAkcd6EhIZVytIaRJr1+DU8QflGDNilRy9aGhLAzTzRhf3iXLxQ2K+AFwupVFrGeBK90Q1fGZDTOMrdq00fGsJ1dgtl5P78igWYNvE4dOsTx3+UHd+tdGtythMw6dLT43jkGwyfmSQJBd6F+/WJBpwYvNmI4M8TEsrT4+CuZSbpjPAvO40lKf0pW1G5eglfCE4bIkJAqyZqEyLTExLmpsYkfZ3B3mqnVMZOZ5SM3S5nqw7hZNXijdZlMz8Gj35OtNzCTwZj/NZNeqfu9TK6+JIEogTOru1EpJMtgvJWt0ysgpMTFM130SDbOmMPmj8ljiyctYHmjprKJaTnMUmJxIjDQpsRCDd7pN06zr//2Nbu85xI7v/0cO7xsH1s2bREbm5rxwO+g3Q4q2VDc6ckQlnrYaEfhbpHXeE1ZWG5tcrjVmWaayDbOXcuOvn6InV1/hr2/6n128NWDbMe8HWzDjA1s1Qur2KKxC9j0rClsfEr2A4DMGx5ZYCnFEng3jt1g/3n/P+x/p/7H2IdM0eW9F9mR5fsVEO8D0Jh8ix4SsoSi9udJAJZq62Zee5s19gW2f+ku9u3+K+zf7/6bXT98nV3adYl9suETdnz5cbZv4T62dfZWtu7FdWz5c8vZ4nGL2cu5L7O52XPZzMwZ7IXUiWxcMlnCFGYeF27t1l0pHhcVPLX+eO8PdmLtMbbwubz7ITQYLlMtUW0FJXhuB5xOq66/Tc4ew3a+soVdPfCNsrh3Tt9htz+4rSzyz0d/Zt/s/YZ9vuVzduqNU+zokqNsz4I9+fCteH4Fe238a2zh6IVsvmk+m5M1h83KmMVmpHEIUyax8cZcNsqYyixtl50KCCgyeGr99PaP7MDru9n0URNVABqvmXS6qZpITU133wEpTRbOJNypUhLhC0bW4/YHf923oATef0/9VwHgt3d+U6weQfHFti/Yx29+zE6sPKEAuHfhXvbWnLcUt7tmyhq2bNIyxQJagnBKygtsYvJoNjr5wZjtYcFT69T6E2zehOmqn5nyKwHIk6TK7gpgiQcuU6vtre4IITf12dazVheRwKOFJ6v354k/Ffh+OvoT+/7A9+zy7svsy7e+ZJ9t+kyB5d0V77Ijrx1RINw+dzvbNHMTe2PqG/mWcNGYRewl00uKK87LzGMz02eyF9OmsslpE9mk1FHK3zM+LYt9uPbDYoEnRImJOhakBy1Hq4sRdUF3ArDEFn4NGk3DHKNxU/6+6djJysLYsoACPmH5yO3efOem4nr/dehf7Oq+qwqEX731FTu3+Rz7aN1HiiV8e+nbbP+i/Wzn/J1s86zNijte+fxKtnTCUvbKmFeUeJCsIcH46thX2dqpa5W4kSzplT1XlN9RHPCEKGxQx4EmnfFYpsYQ5E5JSIkDjp5u7lYn5hqS/1RqbZkmdmzVkSIvHsGntn5/nfxLsYCUdJAV/OXtXxQ3TJaQrNWFHReUWPAMz4BPrj7Jjr1+TMmCd7+0W4kJ109fz1ZPXq0kJeSWKSvekrdFsZiUvHy791vl59LvKS54Qmc2nVZiWAFgjsEw213cb4mzcia9/gPxQW99eT27efxGsRZPDSBZQDWEZAkJll///iv78ciP7NrBa0oy8s+d/2Tnt55XgKKkhDLiw4sPK4kJlWO2zd6muGaydmQpKX6k1/5+/He7gkeiGHbPa9vv1QR5YpWq0bRwtfUrKbFc2cwEXSwF1SJTpfqXvRbPEoQCRAKF3OOtE7cUcChOo5jwh4M/KFaMyjEiLqRYjuqBBCKJLCP9O7lteg39DAKbfoe9//YfDn9/z/1yb5CpM+Qi9nOJ9fN4K6cJ09TK0RveEFZu1cwliiWy98JZg9DcGgoIySWr48Lv9n+X75LJwpFFpBiR/o2+TpZTxHeOAE9t/e7tghgP0OfnCvg83bX6iU18ciUPE8s5EkJLLpksG4FGFpH+S2DS1+j76HWOgs48+xWxHxWf4Xqd2hHjqdCVNURHtxRnGagmJwrArlZBEKqtIbll+i/9P/07fY8jrZ2lXZDFk+fn1/3StdoQZ5ZdPDKeS9Vqu4l4jgqnxU0gnAGiOi4kyITo/8XXnAWd2vWunb38Xtyn1eqcde7D00olj6QmJAwSpRKK58x3HtxZamtoSa76u9RxX7ZON80Z8HkUdMnx8YP5h6NAR/urngKcJ4i2D50Jn2dBB0tHbUISFvuL9nwFfOla3WhHnvX1DPcarenIP4wb9IFQR4aExFnwaQ2Ogs9DoLubSNBOhITDufAZ4uOHOAI+t4ZOExnZKNdgvEIfwMZ5ayQUThR5FpHtGqI1newd87ltnS4kKKh6dpL+OL15qjdJGJwvSuCww/F1WEiYrz3hc0voaJRDVlLSq6I47IwtMCnLEkVmMgIYLlS2RIGncrHeqZqEBLEN5ojNfqmi7XCI9vrMpKT59prv4m7QldMMHdpWlE0oyJWL73rRwz8mNf0OrUmyJmEEph0Uy+W6VTJBQ2uy9cZPZQbrvplujt7wQ0hwSL3iZrpuFdelJmjHiX46T9oKKy0S5zkytbqVxZ1s5TZxXVhISBOTwai42IIO40i5TnSkUnQy62JiBhQn3nM1eMLFVsrS6o+IjX+5yO4r2q6Ey/0qKDCw5sO6XHdwsRV0MZoYkcW6c4uT1N1WKnGGNzUxMe9hXa6rrR1lR1Wy9IZz9EZc1UEsVfQsF+d2/+QhUlO43CJZPVdaOyWL1UXHxMqEwvNEIRGtW0Zi4pKHmWTq0oSCJmBKa+eZoqMGwuqF9uzZrKi7Gq60dpW0UTFxYltMWjvPtXrpidqlFDIVxeq50tpVz4C1k+WTEmH1Aopi9Vxm7TQREeFipolcRM+3esmxcdOLYvVsPdllD5UROxRk7dITtJvpD6axq4UdgimOJByOFXmru+c09Bf4uvrYavUKdImWRu17ijbMXe2SI4OlUeJweOTgwQNttXoFbtp7KnRC4tyqhM+xEscjUzUJ6zg3j9qylWa1PYlqbGIBPe2DEH83ndSnU/oSPseK9nCRZNxoXK8eXRRTqbDdDGvtSfRCH08Hj+aUEHxi9JeEz3ESnSuaiMgk1Q1FVnczLLYn4RrLBp4OHo0JowGKzhyIU1pFGwD0mafExb3J2alRWJJhsdSBmwSbeDp4/9j+D2UiE1k9R82dk7q/psez2285O77YRnvEWpJhvmlfDlkJdZg+5eng0dBDmktn7xGvUgVntz2CgzvDa3rbCh59Y1WuhlxtPB08mkdMo2HtNdRaqmDR2Wf63BOiop4rzN1aAq8arrAM8nTwaPQrTVMv7hh/KdskzmWkJWgPm7lbm8F7jKu9p4NX3ItLpIommrOMOO86Jafq7FaCJwFxqMSZjGaNm7XCFprFJlEJnpRdJdriQ3v0HIzqSEVLcZ4ET8quEqNto8MGjyoozpPgSdlV4hRaUnT0CsR5VS01DUjwpOwq0SaVokl4GxxZrOdJ8KQcktmmxid+xBlqrEow7ovzJHhSdpXoVMlM0l3mDNHRx5qWCskSPCmHgJeVpPueM9Scq7alNikJnpRdRacFFfB0+p84Q4HWMlsJnpTDPn/OUEs0nFSR4EkwnAlea676qnMYEjwpp4DXxlotT4In5Ujw2qHFToInwXCsaFi30qGiN/xOrXVosXugS0WCJ+WYcopWd02CJ8GT4EnwSrYu7P7y7iwVjeZTCZ4Ez2kSTQJGjeZDJBd+SC4keFKOkzhfGx8ZuZ0z1FZmtRI8p4guxqHPflj//otkHU+C5zQtfC5P+ew7d+iQxRlqJXcuJHhOkTjU7VvTly5YbsFVVzYJSPAcqvzisU7/b87PM1xPojtFtkVJQJyQ0cZoznF+unEFoB+vomwElYA4TOJG7xGDBm3k/HTheqJYHcieKgmecyXO1Aa1aEWJRUcuf9WE0DK2gheUGpdw3lOhm5RuUmanSPCcI7FVhviuv6p4XM3WU2ZV8YJ2+AFxXJlco7nGc020UZO4aGoQ/fCZXAu4VjTx9z/XtUNHlhCuYdNSp9lNM9JmsNmZs9mCUQvYmilr2N6Fe9lH6z5ShvbIaVGOlxjYox0xknYs+ph1H5cr7EC3mI/XADWYEC66CtwI+Exco2wUgToGsD7PNYvrlRo1auzp8XRnNqh3KJuTNcdumpczT4FuyYQlbMOMDezQ4kPs7PqzylRQAk/Ox3OsxASB8ND+q/k698BBnzrW5iGbTwQth5qLL14YzDWIayRXIpeOy1AEEbCpXNkAcAbB17Nzlz/6dO/O8rJmsaUTltpFyyYtYyufX8nenPYm2zV/Fzu+/Dj7fMvn7NrBa+z3479L8BxcRhHDehr7+xuRWDSxllhYG0VbAUP1/NEzT2lxKAAM5xpWBEVwPcsVA2jJYk5t36rV6cF9+7FxulFs2+xtdtH2udsV4PYt3MeOvX5MGcp4adcl9uORH5UPRo6idZxOrD1299bu6BjqSKG7LtpzNVInFrZMfRdxHpnJx2kkLdpbOnF1Bs22Khjg9uIKg+VMq1e79oLo8HCWEDmCvbPsGHtv5XvF1omVJ9jJ1SeVhOLc5nPs4q6LirVTx3cSPMdo8eT5Cni9u3Z/BfGd2Cqrau2yFWu3ZpfHi2rhBzQChE8UUWRum6ngpWr2cK7kZwcNvpIUPZLtXridXdhxwS4i2C7vvsyu7rvKrh++rmSzt07cktbOCdlslk7/R6UKFciwdC8svivogpVHAF8lAPgoZmDUeAjVQnbjjyehJ7nfXl26bEhLSGRzxk5T7qOwh34++rNyvQABR5Pe6ZoBgk5aO8fpwOu7744lCw8/yNd1MDxjY5tnIFuArywA9AaE5fGDiqpKKuvZCGWafj7VfIyZiUl/8SeFXdx9QbFMxRWBRiLXKq6TktA5TjQ14IXs0XcIvFbNAyfwde2LvKBhQWNoC7tET33rogDxYSSsZxWY3wDEfkOjwsIOmQxGtmL6YgUSe4hAE5I3ODpniywxKuoMQqhutrhZm+6rtfN1oY9iV4Q6U0Mb1KuXzi3ebeUWnv1X5HWhHqSbx2/kl1BaNGv+HLLZDsgFCr0+1FkXJJexUCOkIHT4iCHhh+mPpwt35YJ6nrVLiBpxFpsMvdB/V2A262zwRLZcAU+DP2o9A3kmlJSRpLtJb+Ly3otyUT3P2k3m6zgEpbYmqoHbtt3e6ATwHriySmS4A0P6KLd1U3cDBaxycd1b4jr4hMioT1Cb7aNKKqoXdnOj08CzYPVqIOXuCKunS41PuEZvhoY3y8V1X+VfBa833G7k5zcWu1nBqNcWmlS4Cjz1zkh9xARUVH62fevW8+gNkQmnoqRcZPcsn4gzFWF9+u2EteuL02SP2Xo7t1PBM7N6FbGBnG/1uOJjhg07SW+KLt2VC+2+CUWyJp6uBk1SWbsAWLvKtlg7V4FnbvVErDfcp5pPdiYSjTObTsvFdiNR4ieabAObNJvO1ysasV0b9G/abO2cDp6VWO9xZLjUdBr7zNNdVtKbm5iRc4dG18tFd72ou2f6qIkKdBEDBhzi65SAbqXOmOxeu7CLkV0OnoWm07qo63Wl3Qwy4SMGh79HbzJv7GSZ5bpRFmuIib1cyds7ja9RJGLzlmgarl4Ua+dK8NRWT+xmtBEdzxW8vTPoTdKbpc5Wufiuk2gCyEhMuulbu/Y49FaGwks9jli9oq2xnUvBs7CbURvFx05INOL8GjR4XsR7NAhGQuB8iZFjysmxli0Xogt9CBKK5vBWVWyp27kTeMLqiZNt9XEvQne4XG27li0X0Zsek5p+5/z2cxIGJ+rqgW+UOJs+/369etPkJz1cbC+0t4mEokJRXKzLwTNrt6+IrTThcnujZd4wqHefv0n4nCuqo4p2p5Hhw05R4y6y2H5wsY3hYkWxuIwngmfucp9Al0MoCpTJQ0JDD4jiMpl/CYdjoRMZbHxkJI2ioGRCgxDoaexQ+D6si3UL8Cy43KqIGwKQqofhTaeNDA8/Lcos5AYkJI4pm1Al4W6PXfQXPMkzoXQyBFWHQIRERc5i3Q48C2c9qiNFD0RjIb3peK6M2IiIM8qUgEyTtHwOsHRiBIV+ZMzXHLpcirNxWrCnKq7zUWexJQG8Mmbxnh/qRD2QbCTSh0FPooj55O6G/RIJEdMZ4uKuVqtSbRyOow5HvN0WrWwiriv3sC7WrcCzEO9Vwpv0R7LRC2d0aX8wU7hd2c1SfFG3CT3EyviJZ0d8yR/uUchgn8WWWBCSCbE74V1c6NwKPCvJRi0UKdviyRsO+LLCevfZK+DbOG+NhOghJAZl381eh36IiQ8EXRS6TtqjvlpHlUyULS50bgeehUaCKqpMNwg7G5HC8j0THLw5R29UzmzQ7F3ZTmV7EiFmnZCG9O17yAy6fugaaooMtmpxkwm3B89CpitOp6nhG47AN6NtixZLaDtHZLwy7it8N0L01FEzJz285EEQ06mha4YKQzV7Q+e24FmZauALsx8EtxuBLZz0OrVqTaH4RO16ZXPB/aLPY89r2/OtnFET993jfn5zMAUsCZ6kL2qo5tDZ3HXi8eBZga8OAt226I4YilILTaQy9ezSZQs9xaKzRe503LNyoj5HGtq//995EkGZazoe3uHwJO3hXgV0FR52Z8KjwbMCX20kHK2xr0tjE2IxEi2bP8VzDSNjrogPmbqZS2tfH50GU8dyGYna39q1br0CU7tSMHRzKKoG7RDO+JpbOntD5xHgWYn5xDiMFuiUGICznRSnZNBgyJDg4B1ZOv0t8aFT2zYF1aXFrVKZSRxBJC9AVq5alWrPI54zoL1pEB7e1niY65glEg6BzmPAswBfZXQvN8RdCp0Qn0Rgi0dxvfyDnjx8YNh7Aj4Kqqm/jCxBSQWOZtWJvVZSXETk5/Xr1s3jn0cu9l21qNGFYpRcCzzEtfBQ5ycSjoLOo8Azg08UmR/F3mFTuIqecL0xKA1Q4DzK389vfmJU1FdiMcgS0J1bJaX8QpacLJzIVkXy0Oapp5ZhJHAWQhENXGtvJBHN8fDWUBWHyzoSOI8Ez8L2WgXEI2KIZEs8xaHI0hIQy1CNagwtBFkA9XR4ioE8dd+XYlcKIUTf3N3h1yMudmwXtA7zp3Ng/RNRKhmA/e/WiOfq4uGtiIfZKdB5JHgW4BOTqGri6Q1AdvYMYpholAvSEFSPadboiUXRQ8I/VgNI1oIW0d0TEbLStOMgNvTVLhUWbizeZzpi3pFotOiN+tyT6HushXiugiOTiBIFngo+ddxXCZ0tvirr1xn7jeGqOczpAkAe+8yJHDT4FGV76kWk0gO5LneZ5UKb+ASbGPkqRMkT/f30IKmAy0DyoEFnST8kYK1g5eqhCaOSyrU6FTqPBs8G69cAsV8b9JL1w0LEqgDMQQw0vnVg4HJaRHUmLOJBKsk4E0QBGp3uohYw88tjYiIiPu0a1HETJumPUVk4PYAbjuOi3RD7BsAbqK1cOWckESUWPDP4hPWriNivNtxKABZATLBXAyiuQxgFqzGeYiSCMCUu/rqlW4PIzZH1oZ0AypIpRiQVJVmhhIBeQxeT0M8guMVdr+Yii0yuNKRbt508U5/K/8Zx+HuzEULo8H4iAFx3hBtPImOtA2/gUitX4sAzc71q61cZwbMvFqA5ABQWMBwxYCKyvgxYwXwI+UK/+HTbtm8O6z/whCFW870zrsNKS0j8hWLQHp07b/Nv2PBl/ndMAGyjVe40GaWRkchUQwFcEIDzR/Lgg8/hvoKwK6ErUeBZif3KqQD0UQEYgG23LtgqCoN7isViGuG6slH/Gi1AJAgIBu6aVwzo2ftgeGjoO9oR0ZdIBIwtYJE7F68hyxoWEnI0qEWLNc0DApZ43b2OazxAG4OHIAewpSBR0qAWNxgxbDAeqOZmwFVxB7daKsCz4n7LYQGqwALWgQtuiiSkI6xFXyxmJJKRBMRNKVj4bK9712oJGMcJICFb7nkT3ysAG6uCzITfk4kwwIiHQcAWDuvWE4Xz1tjUfwwPliXgyrgLcCUevAIAFBawOmLA+siCmyMR6QQI++Bk1VDUwGIBorhWKwXxVQYKtAJKE6xkrtf9d7uJfxPfk4PXZcK6Csh0cP0abANGoCzUD7B1hrUORMNEA7yPR/G+HgDO3aArFeBZAdD8Hg8fWMGGKghbIUDvggXvgwLsEK97V2VFA8g4wKKFK9TBUqrvddNDOnxPIjprNIjTovBzwwF8P9Qiu8Iit0Hs9gTOo/hix6Ea3kd5TwCu1IFnAUCRhAg3XBmLWAMQihuNmmDBW3ndu1orGIeQesE9hwKWQXDV4bCU5goHuIPw/f3x+t6AuyvOrraHCw1EOPA4HgpflIqqq6ybN96HW7pUCV7BWbD6Mhn1pTCPYqEFiI8Bgqawik8ByDYI7tvDOol738z1NL7eARC3xetbAO6mcJ+N4EJ9UXvzwUNhFTZPAa7Ug2cDhCIeFCBWgaXxAYy1AUZ9QOIHYPwBZ2Ov++91a4x/98f3PQYrVh9ZaB0VZNUBfmXUJMtbg83TgJPgFQyg+Y1GAkRvMxgrA8iqsEjVve7d+2bp7jcffL06vr8qXl8ZP08NWTkVaCUCNgle8UEUMAogBZTqe9/M735T/7u3Cq5yqp+lhqxEgSbBsx+IlqAs41Xw3W+Wvs/izyzxn6UEymlwlhqoJHhSbqv/BweZwbmF4PgUAAAAAElFTkSuQmCC;" vertex="1" parent="1">
          <mxGeometry x="880" y="1640.1999999999998" width="78.44" height="70" as="geometry" />
        </mxCell>
        <mxCell id="oAUWkIzRKvWxXRnF3NiV-4" value="transporttrolley" style="text;html=1;strokeColor=none;fillColor=none;align=center;verticalAlign=middle;whiteSpace=wrap;rounded=0;" vertex="1" parent="1">
          <mxGeometry x="889.22" y="1710.1999999999998" width="60" height="30" as="geometry" />
        </mxCell>
      </root>
    </mxGraphModel>
  </diagram>
</mxfile>
